<?xml version="1.0" encoding="UTF-8" standalone="no"?>
<!-- Created with Inkscape (http://www.inkscape.org/) -->

<svg
   width="1920"
   height="1080"
   viewBox="0 0 508.00001 285.74999"
   version="1.1"
   id="svg83642"
   inkscape:version="1.1.2 (0a00cf5339, 2022-02-04)"
   sodipodi:docname="background.svg"
   xmlns:inkscape="http://www.inkscape.org/namespaces/inkscape"
   xmlns:sodipodi="http://sodipodi.sourceforge.net/DTD/sodipodi-0.dtd"
   xmlns:xlink="http://www.w3.org/1999/xlink"
   xmlns="http://www.w3.org/2000/svg"
   xmlns:svg="http://www.w3.org/2000/svg"
   xmlns:rdf="http://www.w3.org/1999/02/22-rdf-syntax-ns#"
   xmlns:cc="http://creativecommons.org/ns#"
   xmlns:dc="http://purl.org/dc/elements/1.1/">
  <defs
     id="defs83636">
    <style
       id="style167263"
       type="text/css">
   
    .fil0 {fill:black;fill-rule:nonzero}
   
  </style>
    <inkscape:perspective
       id="perspective248522"
       inkscape:persp3d-origin="105 : 99 : 1"
       inkscape:vp_z="210 : 148.5 : 1"
       inkscape:vp_y="0 : 1000 : 0"
       inkscape:vp_x="0 : 148.5 : 1"
       sodipodi:type="inkscape:persp3d" />
    <symbol
       viewBox="0 0 544.94538 370.90805"
       id="university">
      <title
         id="title166506">university</title>
      <path
         id="path166508"
         d="M 67.079778,0.00100411 A 1.323049,1.323049 0 0 0 66.433824,0.14104807 L 0.72930808,33.138517 a 1.323049,1.323049 0 0 0 0.57619212,2.505274 l 81.8849238,1.098124 a 1.323049,1.323049 0 0 0 0.628901,-0.14986 L 143.47253,5.4895578 A 1.323049,1.323049 0 0 0 142.91288,2.994619 L 67.079778,0.00100279 Z M 117.96194,23.326195 a 1.323049,1.323049 0 0 0 -0.57877,0.159681 L 84.75467,41.2481 35.636221,39.847668 a 1.323049,1.323049 0 0 0 -1.290878,0.898136 l -7.099308,20.976498 a 1.323049,1.323049 0 0 0 1.532207,1.717209 c 0.599967,-0.129678 0.746342,-0.272902 1.252636,-0.513146 0.506293,-0.240245 1.167553,-0.560292 1.984891,-0.935861 1.634675,-0.751141 3.888287,-1.723395 6.662126,-2.679424 5.54768,-1.912057 13.168154,-3.753149 22.010026,-3.60443 4.419595,0.07433 11.918712,1.853661 18.18132,3.635436 6.262605,1.781776 11.349694,3.543454 11.349694,3.543454 a 1.323049,1.323049 0 0 0 1.43247,-0.382924 c 0,0 9.475885,-10.81823 16.353005,-15.09055 3.30806,-2.055085 9.22262,-3.676081 14.22601,-4.684985 5.00338,-1.008907 9.10848,-1.461929 9.10848,-1.461929 a 1.323049,1.323049 0 0 0 0.85783,-2.178161 L 119.0177,23.784567 a 1.323049,1.323049 0 0 0 -1.05576,-0.458372 z m -87.615319,16.256374 -7.945769,0.115755 c -1.10871,1.847996 -1.907318,4.168381 -2.761588,6.928776 -1.230992,3.977693 -2.272733,8.74394 -2.885612,13.49375 -0.584605,4.530683 -1.020568,8.439841 -1.347205,11.759488 -3.770447,0.602589 -6.7228739,3.765786 -6.9995725,7.63106 a 1.323049,1.323049 0 0 0 -0.00517,0.01394 1.323049,1.323049 0 0 0 -0.03359,0.127642 1.323049,1.323049 0 0 0 -0.021188,0.130742 1.323049,1.323049 0 0 0 -0.00156,0.01757 L 7.2115878,93.883123 a 1.323049,1.323049 0 0 0 0.1808676,0.760677 1.323049,1.323049 0 0 0 0.1565796,0.212907 1.323049,1.323049 0 0 0 0.1953369,0.17725 1.323049,1.323049 0 0 0 0.2273763,0.135393 1.323049,1.323049 0 0 0 0.122473,0.04961 1.323049,1.323049 0 0 0 0.38809,0.0739 1.323049,1.323049 0 0 0 0.1322917,-0.0021 1.323049,1.323049 0 0 0 0.1317749,-0.01498 1.323049,1.323049 0 0 0 0.129191,-0.02791 1.323049,1.323049 0 0 0 0.1255739,-0.04031 1.323049,1.323049 0 0 0 0.686263,-0.593762 1.323049,1.323049 0 0 0 0.058394,-0.11834 1.323049,1.323049 0 0 0 0.057878,-0.167431 l -0.051677,0.641821 a 1.323049,1.323049 0 0 0 0.1813843,0.760677 1.323049,1.323049 0 0 0 0.15658,0.212908 1.323049,1.323049 0 0 0 0.195337,0.177765 1.323049,1.323049 0 0 0 0.226859,0.134877 1.323049,1.323049 0 0 0 0.122474,0.05012 1.323049,1.323049 0 0 0 0.388606,0.07338 1.323049,1.323049 0 0 0 0.132292,-0.0016 1.323049,1.323049 0 0 0 0.131258,-0.01498 1.323049,1.323049 0 0 0 0.129708,-0.02791 1.323049,1.323049 0 0 0 0.125574,-0.04082 1.323049,1.323049 0 0 0 0.310575,-0.170016 1.323049,1.323049 0 0 0 0.120406,0.332795 1.323049,1.323049 0 0 0 0.0677,0.113689 1.323049,1.323049 0 0 0 0.2651,0.293524 1.323049,1.323049 0 0 0 0.220142,0.146243 1.323049,1.323049 0 0 0 0.244946,0.09922 1.323049,1.323049 0 0 0 0.259416,0.04857 1.323049,1.323049 0 0 0 0.645956,-0.106968 1.323049,1.323049 0 0 0 0.118338,-0.05943 1.323049,1.323049 0 0 0 0.111622,-0.0708 1.323049,1.323049 0 0 0 0.103869,-0.08113 1.323049,1.323049 0 0 0 0.0956,-0.09147 1.323049,1.323049 0 0 0 0.225309,-0.325046 1.323049,1.323049 0 0 0 0.05219,-0.121438 1.323049,1.323049 0 0 0 0.04444,-0.143145 l 0.343648,-1.474846 c 0.01652,0.0038 0.03351,0.0063 0.05013,0.0098 l -0.324528,1.393198 a 1.323049,1.323049 0 0 0 -0.03049,0.262515 1.323049,1.323049 0 0 0 0.152446,0.636653 1.323049,1.323049 0 0 0 0.0677,0.113689 1.323049,1.323049 0 0 0 0.2651,0.293524 1.323049,1.323049 0 0 0 0.220141,0.146243 1.323049,1.323049 0 0 0 0.244947,0.09922 1.323049,1.323049 0 0 0 0.259415,0.04857 1.323049,1.323049 0 0 0 0.645956,-0.106968 1.323049,1.323049 0 0 0 0.118339,-0.05943 1.323049,1.323049 0 0 0 0.111621,-0.0708 1.323049,1.323049 0 0 0 0.103869,-0.08113 1.323049,1.323049 0 0 0 0.0956,-0.09147 1.323049,1.323049 0 0 0 0.21394,-0.304374 1.323049,1.323049 0 0 0 0.0217,0.127641 1.323049,1.323049 0 0 0 0.03566,0.12764 1.323049,1.323049 0 0 0 0.260449,0.456303 1.323049,1.323049 0 0 0 0.09198,0.09508 1.323049,1.323049 0 0 0 0.210323,0.160198 1.323049,1.323049 0 0 0 0.115755,0.06356 1.323049,1.323049 0 0 0 0.248047,0.09095 1.323049,1.323049 0 0 0 0.393775,0.03979 1.323049,1.323049 0 0 0 0.131258,-0.01291 1.323049,1.323049 0 0 0 0.256315,-0.06511 1.323049,1.323049 0 0 0 0.237712,-0.114204 1.323049,1.323049 0 0 0 0.21084,-0.159682 1.323049,1.323049 0 0 0 0.09198,-0.09509 1.323049,1.323049 0 0 0 0.153995,-0.214455 1.323049,1.323049 0 0 0 0.113689,-0.257866 l 2.221054,-7.31325 c 0.238419,-0.404844 0.46717,-0.819986 0.685229,-1.243851 1.520632,-2.955816 2.59674,-6.057487 2.59674,-8.553482 0,-3.160048 -1.791176,-5.92733 -4.40645,-7.337538 0.325576,-3.331565 0.765442,-7.295391 1.368393,-11.968261 0.572876,-4.439788 1.562452,-8.974741 2.687174,-12.609049 1.124723,-3.634309 2.692805,-6.488026 3.092318,-6.879167 0.935919,-0.916308 1.750489,-1.376267 2.282032,-1.612305 0.118501,-0.05262 0.206554,-0.08561 0.281119,-0.115755 z m -12.689665,54.725858 -0.123507,0.405659 0.09095,-0.390673 c 0.01075,-0.0052 0.02186,-0.0097 0.03256,-0.01498 z"
         inkscape:connector-curvature="0"
         style="stroke-width:1" />
    </symbol>
    <symbol
       viewBox="0 0 20 20"
       id="share">
      <title
         id="title172778">share</title>
      <path
         id="path172780"
         d="m 3.8364583,3.175 c 0.4392084,0 0.79375,0.3545417 0.79375,0.79375 0,0.4392083 -0.3545416,0.79375 -0.79375,0.79375 -0.4392083,0 -0.79375,-0.3545417 -0.79375,-0.79375 0,-0.0635 0.00794,-0.1217083 0.023813,-0.1825625 L 1.9076458,3.1776458 C 1.762125,3.3390417 1.55575,3.4395833 1.3229167,3.4395833 c -0.43920837,0 -0.79375003,-0.3545416 -0.79375003,-0.79375 0,-0.4392083 0.35454166,-0.79375 0.79375003,-0.79375 0.2328333,0 0.4392083,0.1031875 0.5847291,0.2619375 L 3.0665208,1.5054792 C 3.0506458,1.444625 3.0427083,1.3864167 3.0427083,1.3229167 c 0,-0.43920837 0.3545417,-0.79375003 0.79375,-0.79375003 0.4392084,0 0.79375,0.35454166 0.79375,0.79375003 0,0.4392083 -0.3545416,0.79375 -0.79375,0.79375 -0.2328333,0 -0.4392083,-0.1031875 -0.5847291,-0.2619375 l -1.158875,0.6085416 a 0.70537917,0.70537917 0 0 1 0,0.365125 l 1.158875,0.6085417 C 3.39725,3.2755417 3.603625,3.175 3.8364583,3.175 Z"
         inkscape:connector-curvature="0"
         style="stroke-width:1" />
    </symbol>
    <linearGradient
       id="linearGradient2795">
      <stop
         style="stop-color:#b8b8b8;stop-opacity:0.49803922"
         offset="0"
         id="stop2797" />
      <stop
         style="stop-color:#7f7f7f;stop-opacity:0"
         offset="1"
         id="stop2799" />
    </linearGradient>
    <linearGradient
       id="linearGradient2787">
      <stop
         style="stop-color:#7f7f7f;stop-opacity:0.5"
         offset="0"
         id="stop2789" />
      <stop
         style="stop-color:#7f7f7f;stop-opacity:0"
         offset="1"
         id="stop2791" />
    </linearGradient>
    <linearGradient
       id="linearGradient3676">
      <stop
         style="stop-color:#b2b2b2;stop-opacity:0.5"
         offset="0"
         id="stop3678" />
      <stop
         style="stop-color:#b3b3b3;stop-opacity:0"
         offset="1"
         id="stop3680" />
    </linearGradient>
    <linearGradient
       id="linearGradient3236">
      <stop
         style="stop-color:#f4f4f4;stop-opacity:1"
         offset="0"
         id="stop3244" />
      <stop
         style="stop-color:#ffffff;stop-opacity:1"
         offset="1"
         id="stop3240" />
    </linearGradient>
    <linearGradient
       id="linearGradient4671">
      <stop
         style="stop-color:#ffd43b;stop-opacity:1"
         offset="0"
         id="stop4673" />
      <stop
         style="stop-color:#ffe873;stop-opacity:1"
         offset="1"
         id="stop4675" />
    </linearGradient>
    <linearGradient
       id="linearGradient4689">
      <stop
         style="stop-color:#5a9fd4;stop-opacity:1"
         offset="0"
         id="stop4691" />
      <stop
         style="stop-color:#306998;stop-opacity:1"
         offset="1"
         id="stop4693" />
    </linearGradient>
    <linearGradient
       x1="224.23996"
       y1="144.75717"
       x2="-65.308502"
       y2="144.75717"
       id="linearGradient2987"
       xlink:href="#linearGradient4671"
       gradientUnits="userSpaceOnUse"
       gradientTransform="translate(100.2702,99.61116)" />
    <linearGradient
       x1="172.94208"
       y1="77.475983"
       x2="26.670298"
       y2="76.313133"
       id="linearGradient2990"
       xlink:href="#linearGradient4689"
       gradientUnits="userSpaceOnUse"
       gradientTransform="translate(100.2702,99.61116)" />
    <linearGradient
       x1="224.23996"
       y1="144.75717"
       x2="-65.308502"
       y2="144.75717"
       id="linearGradient2255"
       xlink:href="#linearGradient4671"
       gradientUnits="userSpaceOnUse"
       gradientTransform="matrix(0.562541,0,0,0.567972,-11.5974,-7.60954)" />
    <linearGradient
       x1="172.94208"
       y1="76.176224"
       x2="26.670298"
       y2="76.313133"
       id="linearGradient2258"
       xlink:href="#linearGradient4689"
       gradientUnits="userSpaceOnUse"
       gradientTransform="matrix(0.562541,0,0,0.567972,-11.5974,-7.60954)" />
    <radialGradient
       cx="61.518883"
       cy="132.28575"
       r="29.036913"
       fx="61.518883"
       fy="132.28575"
       id="radialGradient2801"
       xlink:href="#linearGradient2795"
       gradientUnits="userSpaceOnUse"
       gradientTransform="matrix(1,0,0,0.177966,0,108.7434)" />
    <linearGradient
       x1="150.96111"
       y1="192.35176"
       x2="112.03144"
       y2="137.27299"
       id="linearGradient1475"
       xlink:href="#linearGradient4671"
       gradientUnits="userSpaceOnUse"
       gradientTransform="matrix(0.38608085,0.08979325,-0.09066015,0.38980822,20.243858,2.525323)" />
    <linearGradient
       x1="26.648937"
       y1="20.603781"
       x2="135.66525"
       y2="114.39767"
       id="linearGradient1478"
       xlink:href="#linearGradient4689"
       gradientUnits="userSpaceOnUse"
       gradientTransform="matrix(0.38608085,0.08979325,-0.09066015,0.38980822,20.243858,2.525323)" />
    <radialGradient
       cx="61.518883"
       cy="132.28575"
       r="29.036913"
       fx="61.518883"
       fy="132.28575"
       id="radialGradient1480"
       xlink:href="#linearGradient2795"
       gradientUnits="userSpaceOnUse"
       gradientTransform="matrix(0.03830053,-0.16467943,0.72383541,0.16834723,-51.520515,97.363288)" />
  </defs>
  <sodipodi:namedview
     id="base"
     pagecolor="#ffffff"
     bordercolor="#666666"
     borderopacity="1.0"
     inkscape:pageopacity="0.0"
     inkscape:pageshadow="2"
     inkscape:zoom="0.4552976"
     inkscape:cx="795.95797"
     inkscape:cy="586.1339"
     inkscape:document-units="mm"
     inkscape:current-layer="layer1"
     showgrid="false"
     units="px"
     showguides="true"
     inkscape:guide-bbox="true"
     inkscape:window-width="1920"
     inkscape:window-height="1016"
     inkscape:window-x="0"
     inkscape:window-y="0"
     inkscape:window-maximized="1"
     inkscape:pagecheckerboard="0"
     inkscape:rotation="-1">
    <sodipodi:guide
       position="-33.832834,72.17671"
       orientation="1,0"
       id="guide167134"
       inkscape:locked="false" />
  </sodipodi:namedview>
  <metadata
     id="metadata83639">
    <rdf:RDF>
      <cc:Work
         rdf:about="">
        <dc:format>image/svg+xml</dc:format>
        <dc:type
           rdf:resource="http://purl.org/dc/dcmitype/StillImage" />
      </cc:Work>
    </rdf:RDF>
  </metadata>
  <g
     inkscape:label="Layer 1"
     inkscape:groupmode="layer"
     id="layer1"
     transform="translate(0,-11.25001)">
    <rect
       style="fill:#f4821f;fill-opacity:1;stroke:#fdfdfd;stroke-width:0.00661195;stroke-miterlimit:1;-inkscape-stroke:none;paint-order:stroke markers fill;stop-color:#000000"
       id="rect4884"
       width="509.58319"
       height="30.589602"
       x="-1.070666"
       y="11.074924" />
    <g
       style="clip-rule:evenodd;fill-rule:evenodd;image-rendering:optimizeQuality;shape-rendering:geometricPrecision;text-rendering:geometricPrecision"
       id="g167286"
       transform="matrix(0.00175139,0,0,0.00175139,-16.885529,-8.6142342)">
      <g
         id="g167269">
        <path
           id="path167267"
           d="m 17689.75,14306.76 c 1051.36,-690.74 2198.19,-1256.25 3422.12,-1649.65 1228.66,-394.94 2531.12,-616 3888.13,-616 3578.44,0 6818.17,1450.49 9163.29,3795.6 2345.11,2345.12 3795.6,5584.85 3795.6,9163.29 0,1171.56 -155.99,2307.87 -448.33,3389.19 -273.56,1011.8 -667.7,1976.03 -1166.15,2876.42 19.36,18.28 38.49,36.8 57.31,55.62 501.08,501.08 811.01,1193.3 811.01,1957.85 0,764.56 -309.93,1456.77 -811.01,1957.85 -501.08,501.08 -1193.29,811.01 -1957.85,811.01 -663.06,0 -1271.69,-233.15 -1748.45,-621.89 -1058.84,782.85 -2240.7,1408.23 -3511.05,1841.51 -1314.03,448.16 -2721.59,691.33 -4184.37,691.33 -3578.44,0 -6818.17,-1450.49 -9163.29,-3795.6 -2345.11,-2345.12 -3795.6,-5584.85 -3795.6,-9163.29 0,-1222.58 180.82,-2402.57 505.21,-3526.06 320.69,-1110.66 781.71,-2161.74 1346.81,-3140.54 -495.15,-500.26 -800.96,-1188.27 -800.96,-1947.68 0,-764.56 309.93,-1456.77 811.01,-1957.85 501.08,-501.08 1193.29,-811.01 1957.85,-811.01 700.88,0 1340.94,260.5 1828.72,689.9 z m 3042.92,12808.27 v -645.49 h 607.74 l -0.04,-5.46 c 0,-208.68 23.2,-412.03 67.13,-607.62 v -61.75 h 14.62 c 10.45,-41.95 21.85,-83.52 34.19,-124.69 -296.12,-98.16 -569.98,-244.81 -812.13,-430.57 -161.39,154.87 -295.91,335.86 -396.18,535.66 -132.21,263.43 -206.64,563.23 -206.64,883 0,543.73 220.37,1035.97 576.63,1392.23 356.26,356.26 848.5,576.63 1392.23,576.63 114.84,0 226.98,-9.63 335.66,-28.11 -67.61,-55.9 -132.52,-114.95 -194.5,-176.93 -186.3,-186.3 -346.16,-399.04 -473.5,-632.08 h -270.38 v -674.82 z m 587.48,-3886.63 v -645.49 h 674.83 v -674.83 h 645.49 v 674.83 h 674.82 v 645.49 h -674.82 v 674.82 h -645.49 v -674.82 z m 7339.87,3728.75 h 392.72 v 645.49 h -674.82 v 674.82 h -645.49 v -674.82 h -151.28 c -266.02,85.03 -549.51,130.97 -843.74,130.97 -55.94,0 -111.47,-1.71 -166.59,-4.98 -86.52,168.16 -189.64,326.26 -307.19,472.09 154.57,200.27 346.29,369.7 564.63,497.64 289.99,169.93 629.69,267.35 994.37,267.35 543.73,0 1035.97,-220.37 1392.23,-576.63 356.26,-356.26 576.63,-848.5 576.63,-1392.23 0,-247.53 -45.14,-483.49 -127.56,-700.09 -37.56,-98.71 -82.83,-193.62 -135.08,-284 -98.61,66.09 -201.72,126.03 -308.77,179.23 -134.63,271.81 -312.57,518.36 -524.82,730.61 -11.63,11.63 -23.41,23.12 -35.24,34.55 z M 25739.84,25287.5 v -645.49 h 674.83 v -674.83 h 645.49 v 674.83 h 674.82 v 645.49 h -674.82 v 674.82 h -645.49 v -674.82 z m -5653.05,-620.27 c -332.07,-457.01 -527.93,-1018.6 -527.93,-1625.09 0,-764.56 309.93,-1456.77 811.01,-1957.85 501.08,-501.08 1193.29,-811.01 1957.85,-811.01 239.51,0 471.92,30.41 693.59,87.6 198.97,-398.92 486.62,-738.89 837.27,-995.04 456.26,-333.29 1018.24,-524.67 1629.64,-519.78 694.76,5.56 1332.6,265.38 1819.8,691.91 417.85,365.81 725.32,854.65 863.64,1411.46 692.11,44.89 1314.94,344.08 1775.97,805.11 501.08,501.08 811.01,1193.29 811.01,1957.85 0,553.22 -163.76,1070.03 -445.7,1504.66 -56.28,86.77 -117.33,170.17 -182.74,249.88 112.67,169.61 207.13,352.36 280.61,545.45 116.75,306.8 180.68,638.72 180.68,984.47 0,764.56 -309.93,1456.77 -811.01,1957.85 -501.08,501.08 -1193.29,811.01 -1957.85,811.01 -72.26,0 -143.91,-2.8 -214.85,-8.31 -207,362.28 -493.28,673.19 -835.17,908.95 -447.43,308.55 -988.34,489.23 -1569.77,489.23 -764.56,0 -1456.77,-309.93 -1957.85,-811.01 -276.31,-276.31 -494.44,-610.75 -634.57,-983.37 -193.92,43.06 -394.81,65.77 -600.2,65.77 -764.56,0 -1456.77,-309.93 -1957.85,-811.01 -501.08,-501.08 -811.01,-1193.29 -811.01,-1957.85 0,-443.2 105.94,-864.28 294.14,-1239.26 141.52,-282 328.63,-535.87 551.29,-751.62 z m 3671.96,-3995.89 c 192.1,116.21 368.95,255.08 526.82,412.95 435.5,435.5 726.56,1015.39 795.3,1661.66 134.29,-100.41 277.98,-188.92 429.53,-263.97 224.04,-450.68 566.35,-831.24 985.93,-1100.54 262.12,-168.24 554.02,-293.57 865.75,-366.11 -110.31,-342.89 -313.26,-644.66 -579.06,-877.36 -348.57,-305.16 -804.61,-491.06 -1301.06,-495.03 -432.56,-3.46 -829.64,131.54 -1151.5,366.66 -235.39,171.95 -431.07,397.5 -571.71,661.74 z m 426.67,3028.13 c 22.92,-65.55 42.69,-133.26 59.09,-202.93 34.05,-144.6 52.07,-296.7 52.07,-454.4 0,-543.73 -220.37,-1035.97 -576.63,-1392.23 -356.26,-356.26 -848.51,-576.63 -1392.23,-576.63 -543.73,0 -1035.97,220.37 -1392.23,576.63 -356.26,356.26 -576.63,848.5 -576.63,1392.23 0,484.7 174.09,927.72 462.91,1269.72 251.97,298.36 590.56,520.79 976.58,628.14 90.01,-136.06 191.69,-263.79 303.66,-381.72 473.42,-498.63 1131.07,-820.98 1864.2,-858.38 20.21,-1.02 116.85,-0.88 219.21,-0.43 z m -803.7,5436.88 c 99.81,242.27 246.54,460.25 428.89,642.6 356.26,356.26 848.5,576.63 1392.23,576.63 416.06,0 800.68,-127.6 1116.65,-345.49 178.16,-122.85 335.05,-274.2 464.09,-447.39 -124.06,-50.46 -243.79,-109.66 -358.44,-176.84 -286.59,-167.94 -540.1,-385.47 -748.55,-640.59 -8.91,6.14 -17.86,12.24 -26.85,18.28 -441.59,296.43 -971.65,469.39 -1540.51,469.39 -251.76,0 -495.68,-33.61 -727.51,-96.59 z m 626.28,-4639.63 -1.17,0.06 c -521.34,26.59 -989.4,256.25 -1326.7,611.5 -334.51,352.32 -539.76,829.59 -539.76,1355.8 0,543.73 220.37,1035.97 576.63,1392.23 356.26,356.26 848.5,576.63 1392.23,576.63 407.3,0 784.51,-122.29 1096.75,-331.89 216.32,-145.21 402.15,-331.7 546.04,-547.96 -368.25,-140.27 -698.85,-356.88 -972.46,-630.49 -501.08,-501.08 -811.01,-1193.29 -811.01,-1957.85 0,-159.53 13.54,-315.89 39.45,-468.03 z m 2729.41,-2300.83 c 764.56,0 1456.77,309.93 1957.85,811.01 501.08,501.08 811.01,1193.29 811.01,1957.85 l -0.03,5.43 c 49.52,-59.63 95.6,-122.24 137.94,-187.51 198.92,-306.65 314.46,-674.09 314.46,-1070.28 0,-543.73 -220.37,-1035.97 -576.63,-1392.23 -356.26,-356.26 -848.5,-576.63 -1392.23,-576.63 -392.2,0 -756.71,113.72 -1062.19,309.79 -67.98,43.63 -133.09,91.29 -194.99,142.6 z m 1392.23,1376.63 c -356.26,-356.26 -848.5,-576.63 -1392.23,-576.63 -543.72,0 -1035.97,220.37 -1392.23,576.63 -356.26,356.26 -576.63,848.5 -576.63,1392.23 0,543.73 220.37,1035.97 576.63,1392.23 356.26,356.26 848.51,576.63 1392.23,576.63 543.73,0 1035.97,-220.37 1392.23,-576.63 356.26,-356.26 576.63,-848.5 576.63,-1392.23 0,-543.73 -220.37,-1035.97 -576.63,-1392.23 z m -4127.21,22352.45 v -645.49 h 1995.14 v 645.49 z M 3420.21,24772.74 v -645.49 h 1995.14 v 645.49 z m 11443.25,-8064.28 v -645.49 h 1995.14 v 645.49 z M 33446.3,33601.83 v -645.49 h 1995.14 v 645.49 z m 11149.78,-8879.51 v -645.49 h 1995.14 v 645.49 z M 24002.43,4720.52 v -645.49 h 1995.14 v 645.49 z M 5056.11,21755.15 c 508.24,119.94 962.43,379.91 1319.52,737 501.08,501.08 811.01,1193.29 811.01,1957.85 0,764.56 -309.93,1456.77 -811.01,1957.85 -390.16,390.16 -896.21,664.4 -1462.05,766.71 493,4609.56 2535.69,8755.11 5597.01,11904.93 3077.88,3166.86 7185.09,5327.7 11781.38,5943.11 113.32,-531.97 379.39,-1007.44 750.18,-1378.23 501.08,-501.08 1193.29,-811.01 1957.85,-811.01 764.56,0 1456.77,309.93 1957.85,811.01 370.87,370.87 636.97,846.46 750.26,1378.57 4595.03,-615.27 8701.24,-2775.38 11778.9,-5940.98 3074.15,-3161.97 5121.67,-7327.64 5605.05,-11958.9 -563.5,-103.13 -1067.43,-376.8 -1456.26,-765.63 -501.08,-501.08 -811.01,-1193.29 -811.01,-1957.85 0,-764.56 309.93,-1456.77 811.01,-1957.85 352.53,-352.53 799.68,-610.44 1300.06,-732.38 -714.47,-4362.14 -2825.52,-8254.2 -5859.18,-11201.49 -3027.77,-2941.58 -6974.64,-4942.18 -11368.64,-5530.49 -113.32,531.98 -379.4,1007.47 -750.19,1378.26 -501.08,501.08 -1193.29,811.01 -1957.85,811.01 -764.56,0 -1456.77,-309.93 -1957.85,-811.01 -370.76,-370.76 -636.81,-846.18 -750.15,-1378.09 -4419.4,591.81 -8386.04,2611.66 -11419.93,5580.24 -3017.41,2952.45 -5113.15,6842.14 -5815.96,11197.37 z m -943.83,5446.99 c -642.52,-70.53 -1218.94,-360.88 -1652.35,-794.29 -501.08,-501.08 -811.01,-1193.29 -811.01,-1957.85 0,-764.56 309.93,-1456.77 811.01,-1957.85 466.17,-466.17 1097.8,-766.84 1799.18,-806.48 721.94,-4551.51 2904.98,-8615.84 6053.58,-11696.65 3167.82,-3099.64 7311.81,-5204.82 11927.07,-5810.96 53.16,-676.96 349.78,-1285.52 802.39,-1738.13 501.08,-501.08 1193.29,-811.01 1957.85,-811.01 764.56,0 1456.77,309.93 1957.85,811.01 452.69,452.69 749.34,1061.38 802.42,1738.48 4589.41,602.87 8712.42,2687.28 11872.67,5757.57 3166.55,3076.4 5366.17,7142.27 6100.2,11698.21 709.06,35.19 1347.94,337.12 1818.36,807.54 501.08,501.08 811.01,1193.29 811.01,1957.85 0,764.56 -309.93,1456.77 -811.01,1957.85 -434.86,434.86 -1013.67,725.7 -1658.79,794.99 -492.56,4835.29 -2625.46,9185.79 -5833.82,12485.8 -3211.16,3302.9 -7499.79,5552.8 -12298.61,6183.16 -53.03,677.18 -349.69,1285.95 -802.43,1738.69 -501.08,501.08 -1193.29,811.01 -1957.85,811.01 -764.56,0 -1456.77,-309.93 -1957.85,-811.01 -452.69,-452.69 -749.33,-1061.38 -802.42,-1738.48 C 17439.79,45191.04 13150.21,42940.09 9938.71,39635.75 6742.59,36347.23 4614.22,32016.19 4112.28,27202.14 Z m 1697.73,-4144.37 c -356.26,-356.26 -848.51,-576.63 -1392.23,-576.63 -543.73,0 -1035.97,220.37 -1392.23,576.63 -356.26,356.26 -576.63,848.5 -576.63,1392.23 0,543.73 220.37,1035.97 576.63,1392.23 356.26,356.26 848.5,576.63 1392.23,576.63 543.72,0 1035.97,-220.37 1392.23,-576.63 356.26,-356.26 576.63,-848.5 576.63,-1392.23 0,-543.73 -220.37,-1035.97 -576.63,-1392.23 z m 8725.18,-4240.74 c -512.33,901.66 -930.54,1865.03 -1223.25,2878.79 -302.32,1047.03 -470.83,2152.35 -470.83,3304.18 0,3357.62 1360.93,6397.37 3561.22,8597.67 2200.3,2200.29 5240.05,3561.22 8597.67,3561.22 1375.97,0 2697.22,-227.78 3928.11,-647.59 1164.94,-397.33 2249.99,-966.28 3224.98,-1676.59 -301.7,-443.4 -478.08,-978.92 -478.08,-1555.63 0,-764.55 309.93,-1456.77 811.01,-1957.85 501.08,-501.08 1193.3,-811.01 1957.85,-811.01 447.47,0 870.13,106.19 1244.21,294.71 446.08,-819.85 800.89,-1698.43 1050.6,-2622 274.01,-1013.5 420.21,-2080.58 420.21,-3182.93 0,-3357.62 -1360.93,-6397.37 -3561.22,-8597.67 -2200.3,-2200.29 -5240.05,-3561.22 -8597.67,-3561.22 -1276.22,0 -2496.74,206.49 -3644.37,575.38 -1119.42,359.81 -2173.26,874.65 -3145.04,1503.63 265.72,425.06 419.3,927.4 419.3,1465.6 0,764.55 -309.93,1456.77 -811.01,1957.85 -501.08,501.08 -1193.3,811.01 -1957.85,811.01 -480.32,0 -932.07,-122.35 -1325.84,-337.55 z m 2718.07,-3823.54 c -356.26,-356.26 -848.51,-576.63 -1392.23,-576.63 -543.73,0 -1035.97,220.37 -1392.23,576.63 -356.26,356.26 -576.63,848.5 -576.63,1392.23 0,543.72 220.37,1035.97 576.63,1392.23 356.26,356.26 848.5,576.63 1392.23,576.63 543.72,0 1035.97,-220.37 1392.23,-576.63 356.26,-356.26 576.63,-848.51 576.63,-1392.23 0,-543.73 -220.37,-1035.97 -576.63,-1392.23 z m 9138.97,29216.5 c -356.26,-356.26 -848.5,-576.63 -1392.23,-576.63 -543.73,0 -1035.97,220.37 -1392.23,576.63 -356.26,356.26 -576.63,848.51 -576.63,1392.23 0,543.73 220.37,1035.97 576.63,1392.23 356.26,356.26 848.5,576.63 1392.23,576.63 543.73,0 1035.97,-220.37 1392.23,-576.63 356.26,-356.26 576.63,-848.5 576.63,-1392.23 0,-543.72 -220.37,-1035.97 -576.63,-1392.23 z M 35836.1,31886.85 c -356.26,-356.26 -848.5,-576.63 -1392.23,-576.63 -543.72,0 -1035.97,220.37 -1392.23,576.63 -356.26,356.26 -576.63,848.51 -576.63,1392.23 0,543.73 220.37,1035.97 576.63,1392.23 356.26,356.26 848.51,576.63 1392.23,576.63 543.73,0 1035.97,-220.37 1392.23,-576.63 356.26,-356.26 576.63,-848.5 576.63,-1392.23 0,-543.72 -220.37,-1035.97 -576.63,-1392.23 z m 11149.78,-8879.5 c -356.26,-356.26 -848.5,-576.63 -1392.23,-576.63 -543.72,0 -1035.97,220.37 -1392.23,576.63 -356.26,356.26 -576.63,848.5 -576.63,1392.23 0,543.73 220.37,1035.97 576.63,1392.23 356.26,356.26 848.51,576.63 1392.23,576.63 543.73,0 1035.97,-220.37 1392.23,-576.63 356.26,-356.26 576.63,-848.5 576.63,-1392.23 0,-543.73 -220.37,-1035.97 -576.63,-1392.23 z M 26392.23,3005.55 c -356.26,-356.26 -848.5,-576.63 -1392.23,-576.63 -543.73,0 -1035.97,220.37 -1392.23,576.63 -356.26,356.26 -576.63,848.5 -576.63,1392.23 0,543.72 220.37,1035.97 576.63,1392.23 356.26,356.26 848.5,576.63 1392.23,576.63 543.73,0 1035.97,-220.37 1392.23,-576.63 356.26,-356.26 576.63,-848.51 576.63,-1392.23 0,-543.73 -220.37,-1035.97 -576.63,-1392.23 z"
           class="fil0"
           inkscape:connector-curvature="0"
           style="fill:#000000;fill-rule:nonzero" />
      </g>
      <text
         id="text167271"
         font-weight="bold"
         font-size="5px"
         y="50015"
         x="0"
         style="font-weight:bold;font-size:5px;font-family:'Helvetica Neue', Helvetica, Arial-Unicode, Arial, Sans-serif;fill:#000000">Created by Alexander Panasovsky</text>
      <text
         id="text167273"
         font-weight="bold"
         font-size="5px"
         y="50020"
         x="0"
         style="font-weight:bold;font-size:5px;font-family:'Helvetica Neue', Helvetica, Arial-Unicode, Arial, Sans-serif;fill:#000000">from the Noun Project</text>
    </g>
    <g
       id="g168017"
       transform="matrix(3.9415216,-2.010224,1.2139803,3.4818101,-679.00609,2.655511)">
      <path
         style="stroke-width:0.264583"
         id="path167834"
         d="M 256.86239,146.16092 H 237.6801 c -0.87551,0 -1.5875,0.712 -1.5875,1.5875 v 15.16936 c 0,0.8755 0.71199,1.5875 1.5875,1.5875 h 19.18229 c 0.87551,0 1.5875,-0.712 1.5875,-1.5875 v -15.16936 c 0,-0.8755 -0.71226,-1.5875 -1.5875,-1.5875 z m -18.76134,15.99089 c -0.44741,0 -0.81015,-0.36274 -0.81015,-0.81016 0,-0.44741 0.36274,-0.81015 0.81015,-0.81015 0.44741,0 0.81016,0.36274 0.81016,0.81015 0,0.44742 -0.36248,0.81016 -0.81016,0.81016 z m 3.52028,-0.77735 c 0,-0.44741 0.36275,-0.81015 0.81016,-0.81015 0.44741,0 0.81015,0.36274 0.81015,0.81015 0,0.44741 -0.36274,0.81016 -0.81015,0.81016 -0.44741,0 -0.81016,-0.36275 -0.81016,-0.81016 z m 4.83976,-0.0331 c 0,-0.44741 0.36274,-0.81015 0.81016,-0.81015 0.44741,0 0.81015,0.36274 0.81015,0.81015 0,0.44741 -0.36274,0.81015 -0.81015,0.81015 -0.44742,2.7e-4 -0.81016,-0.36274 -0.81016,-0.81015 z m 4.83923,0 c 0,-0.44741 0.36274,-0.81015 0.81015,-0.81015 0.44741,0 0.81016,0.36274 0.81016,0.81015 0,0.44741 -0.36275,0.81015 -0.81016,0.81015 -0.44741,0 -0.81015,-0.36274 -0.81015,-0.81015 z m 5.14138,0.81042 c -0.44741,0 -0.81015,-0.36274 -0.81015,-0.81016 0,-0.44741 0.36274,-0.81015 0.81015,-0.81015 0.44741,0 0.81016,0.36274 0.81016,0.81015 0,0.44742 -0.36275,0.81016 -0.81016,0.81016 z m 1.05834,1.60523 v -2.41565 c 0,-0.58446 -0.47387,-1.05833 -1.05834,-1.05833 -0.58446,0 -1.05833,0.47387 -1.05833,1.05833 v 2.63472 h -0.17833 v -1.98437 h -0.33073 v 1.98437 h -0.17833 v -1.98437 h -0.33073 v 1.98437 h -0.17806 v -1.98437 h -0.33073 v 1.98437 h -0.17833 v -1.98437 h -0.33073 v 1.98437 h -0.17833 v -2.63472 c 0,-0.58446 -0.47387,-1.05833 -1.05833,-1.05833 -0.58447,0 -1.05833,0.47387 -1.05833,1.05833 v 2.63472 h -0.17833 v -1.97326 h -0.33073 v 1.97326 h -0.17833 v -1.97326 h -0.33073 v 1.97326 h -0.1778 v -1.97326 h -0.33073 v 1.97326 h -0.17833 v -1.97326 h -0.33073 v 1.97326 h -0.17833 v -1.97326 h -0.33073 v 1.97326 h -0.17833 v -2.63472 c 0,-0.58446 -0.47386,-1.05833 -1.05833,-1.05833 -0.58446,0 -1.05833,0.47387 -1.05833,1.05833 v 2.63472 h -0.17807 v -1.97326 h -0.33073 v 1.97326 h -0.17833 v -1.97326 h -0.33072 v 1.97326 h -0.17807 v -1.97326 H 244.686 v 1.97326 h -0.17833 v -1.97326 h -0.33073 v 1.97326 h -0.17806 v -1.97326 h -0.33073 v 1.97326 h -0.17807 v -2.60165 c 0,-0.58446 -0.47386,-1.05833 -1.05833,-1.05833 -0.58446,0 -1.05833,0.47387 -1.05833,1.05833 v 2.60165 h -0.17807 v -1.97326 h -0.33073 v 1.97326 h -0.17832 v -1.97326 h -0.33073 v 1.97326 h -0.17807 v -1.97326 h -0.33073 v 1.97326 h -0.17833 v -1.97326 h -0.33073 v 1.97326 h -0.17806 v -2.63472 c 0,-0.58446 -0.47387,-1.05833 -1.05833,-1.05833 -0.58447,0 -1.05834,0.47387 -1.05834,1.05833 v 2.41591 c -0.0664,-0.0505 -0.12541,-0.10874 -0.17833,-0.1733 v -1.58115 h -0.24288 v -14.25443 c 0,-0.58367 0.47466,-1.05833 1.05833,-1.05833 h 19.18229 c 0.58367,0 1.05833,0.47466 1.05833,1.05833 v 14.25443 h -0.24288 v 1.58141 c -0.0527,0.0643 -0.11166,0.12224 -0.1778,0.17278 z"
         inkscape:connector-curvature="0" />
      <path
         style="stroke-width:0.264583"
         id="path167836"
         d="m 243.95866,151.85767 h -0.17648 c -0.073,0 -0.13229,0.0593 -0.13229,0.13229 v 0.70564 c 0,0.073 0.0593,0.13229 0.13229,0.13229 h 0.17648 c 0.073,0 0.13229,-0.0593 0.13229,-0.13229 v -0.70564 c 0,-0.073 -0.0593,-0.13229 -0.13229,-0.13229 z m 0.055,0.61753 c 0,0.073 -0.0593,0.13229 -0.1323,0.13229 h -0.022 c -0.073,0 -0.13229,-0.0593 -0.13229,-0.13229 v -0.27569 c 0,-0.073 0.0593,-0.13229 0.13229,-0.13229 h 0.022 c 0.073,0 0.1323,0.0593 0.1323,0.13229 z"
         inkscape:connector-curvature="0" />
      <path
         style="stroke-width:0.264583"
         id="path167838"
         d="m 245.65914,151.85767 h -0.17648 c -0.073,0 -0.13229,0.0593 -0.13229,0.13229 v 0.70564 c 0,0.073 0.0593,0.13229 0.13229,0.13229 h 0.17648 c 0.073,0 0.13229,-0.0593 0.13229,-0.13229 v -0.70564 c 0,-0.073 -0.0593,-0.13229 -0.13229,-0.13229 z m 0.055,0.61753 c 0,0.073 -0.0593,0.13229 -0.13229,0.13229 h -0.022 c -0.073,0 -0.13229,-0.0593 -0.13229,-0.13229 v -0.27569 c 0,-0.073 0.0593,-0.13229 0.13229,-0.13229 h 0.022 c 0.073,0 0.13229,0.0593 0.13229,0.13229 z"
         inkscape:connector-curvature="0" />
      <path
         style="stroke-width:0.264583"
         id="path167840"
         d="m 250.76031,151.85767 h -0.17622 c -0.0733,0 -0.13229,0.0593 -0.13229,0.13229 v 0.70564 c 0,0.073 0.059,0.13229 0.13229,0.13229 h 0.17622 c 0.0733,0 0.13229,-0.0593 0.13229,-0.13229 v -0.70564 c 0,-0.073 -0.0587,-0.13229 -0.13229,-0.13229 z m 0.0553,0.61753 c 0,0.073 -0.0595,0.13229 -0.13229,0.13229 h -0.0222 c -0.0728,0 -0.13229,-0.0593 -0.13229,-0.13229 v -0.27569 c 0,-0.073 0.0595,-0.13229 0.13229,-0.13229 h 0.0222 c 0.0728,0 0.13229,0.0593 0.13229,0.13229 z"
         inkscape:connector-curvature="0" />
      <path
         style="stroke-width:0.264583"
         id="path167842"
         d="m 249.05983,151.85767 h -0.17621 c -0.0733,0 -0.1323,0.0593 -0.1323,0.13229 v 0.70564 c 0,0.073 0.059,0.13229 0.1323,0.13229 h 0.17621 c 0.0733,0 0.13229,-0.0593 0.13229,-0.13229 v -0.70564 c 0,-0.073 -0.059,-0.13229 -0.13229,-0.13229 z m 0.0553,0.61753 c 0,0.073 -0.0595,0.13229 -0.1323,0.13229 h -0.0222 c -0.0728,0 -0.13229,-0.0593 -0.13229,-0.13229 v -0.27569 c 0,-0.073 0.0595,-0.13229 0.13229,-0.13229 h 0.0222 c 0.0728,0 0.1323,0.0593 0.1323,0.13229 z"
         inkscape:connector-curvature="0" />
      <path
         style="stroke-width:0.264583"
         id="path167844"
         d="m 247.35935,151.85767 h -0.17621 c -0.0733,0 -0.13229,0.0593 -0.13229,0.13229 v 0.70564 c 0,0.073 0.059,0.13229 0.13229,0.13229 h 0.17621 c 0.0733,0 0.13229,-0.0593 0.13229,-0.13229 v -0.70564 c 0,-0.073 -0.0587,-0.13229 -0.13229,-0.13229 z m 0.0553,0.61753 c 0,0.073 -0.0595,0.13229 -0.13229,0.13229 h -0.0222 c -0.0728,0 -0.13229,-0.0593 -0.13229,-0.13229 v -0.27569 c 0,-0.073 0.0595,-0.13229 0.13229,-0.13229 h 0.0222 c 0.0728,0 0.13229,0.0593 0.13229,0.13229 z"
         inkscape:connector-curvature="0" />
      <path
         style="stroke-width:0.264583"
         id="path167846"
         d="m 243.95866,153.57481 h -0.17648 c -0.073,0 -0.13229,0.0593 -0.13229,0.13229 v 0.70565 c 0,0.073 0.0593,0.13229 0.13229,0.13229 h 0.17648 c 0.073,0 0.13229,-0.0593 0.13229,-0.13229 v -0.70565 c 0,-0.0733 -0.0593,-0.13229 -0.13229,-0.13229 z m 0.055,0.61727 c 0,0.073 -0.0593,0.1323 -0.1323,0.1323 h -0.022 c -0.073,0 -0.13229,-0.0593 -0.13229,-0.1323 v -0.27569 c 0,-0.073 0.0593,-0.13229 0.13229,-0.13229 h 0.022 c 0.073,0 0.1323,0.0593 0.1323,0.13229 z"
         inkscape:connector-curvature="0" />
      <path
         style="stroke-width:0.264583"
         id="path167848"
         d="m 245.65914,153.57481 h -0.17648 c -0.073,0 -0.13229,0.0593 -0.13229,0.13229 v 0.70565 c 0,0.073 0.0593,0.13229 0.13229,0.13229 h 0.17648 c 0.073,0 0.13229,-0.0593 0.13229,-0.13229 v -0.70565 c 0,-0.0733 -0.0593,-0.13229 -0.13229,-0.13229 z m 0.055,0.61727 c 0,0.073 -0.0593,0.1323 -0.13229,0.1323 h -0.022 c -0.073,0 -0.13229,-0.0593 -0.13229,-0.1323 v -0.27569 c 0,-0.073 0.0593,-0.13229 0.13229,-0.13229 h 0.022 c 0.073,0 0.13229,0.0593 0.13229,0.13229 z"
         inkscape:connector-curvature="0" />
      <path
         style="stroke-width:0.264583"
         id="path167850"
         d="m 250.76031,153.57481 h -0.17622 c -0.0733,0 -0.13229,0.0593 -0.13229,0.13229 v 0.70565 c 0,0.073 0.059,0.13229 0.13229,0.13229 h 0.17622 c 0.0733,0 0.13229,-0.0593 0.13229,-0.13229 v -0.70565 c 0,-0.0733 -0.0587,-0.13229 -0.13229,-0.13229 z m 0.0553,0.61727 c 0,0.073 -0.0595,0.1323 -0.13229,0.1323 h -0.0222 c -0.0728,0 -0.13229,-0.0593 -0.13229,-0.1323 v -0.27569 c 0,-0.073 0.0595,-0.13229 0.13229,-0.13229 h 0.0222 c 0.0728,0 0.13229,0.0593 0.13229,0.13229 z"
         inkscape:connector-curvature="0" />
      <path
         style="stroke-width:0.264583"
         id="path167852"
         d="m 249.05983,153.57481 h -0.17621 c -0.0733,0 -0.1323,0.0593 -0.1323,0.13229 v 0.70565 c 0,0.073 0.059,0.13229 0.1323,0.13229 h 0.17621 c 0.0733,0 0.13229,-0.0593 0.13229,-0.13229 v -0.70565 c 0,-0.0733 -0.059,-0.13229 -0.13229,-0.13229 z m 0.0553,0.61727 c 0,0.073 -0.0595,0.1323 -0.1323,0.1323 h -0.0222 c -0.0728,0 -0.13229,-0.0593 -0.13229,-0.1323 v -0.27569 c 0,-0.073 0.0595,-0.13229 0.13229,-0.13229 h 0.0222 c 0.0728,0 0.1323,0.0593 0.1323,0.13229 z"
         inkscape:connector-curvature="0" />
      <path
         style="stroke-width:0.264583"
         id="path167854"
         d="m 247.35935,153.57481 h -0.17621 c -0.0733,0 -0.13229,0.0593 -0.13229,0.13229 v 0.70565 c 0,0.073 0.059,0.13229 0.13229,0.13229 h 0.17621 c 0.0733,0 0.13229,-0.0593 0.13229,-0.13229 v -0.70565 c 0,-0.0733 -0.0587,-0.13229 -0.13229,-0.13229 z m 0.0553,0.61727 c 0,0.073 -0.0595,0.1323 -0.13229,0.1323 h -0.0222 c -0.0728,0 -0.13229,-0.0593 -0.13229,-0.1323 v -0.27569 c 0,-0.073 0.0595,-0.13229 0.13229,-0.13229 h 0.0222 c 0.0728,0 0.13229,0.0593 0.13229,0.13229 z"
         inkscape:connector-curvature="0" />
      <path
         style="stroke-width:0.264583"
         id="path167856"
         d="m 243.95866,155.29169 h -0.17648 c -0.073,0 -0.13229,0.0593 -0.13229,0.13229 v 0.70565 c 0,0.0728 0.0593,0.13229 0.13229,0.13229 h 0.17648 c 0.073,0 0.13229,-0.0595 0.13229,-0.13229 v -0.70565 c 0,-0.073 -0.0593,-0.13229 -0.13229,-0.13229 z m 0.055,0.61754 c 0,0.0733 -0.0593,0.13229 -0.1323,0.13229 h -0.022 c -0.073,0 -0.13229,-0.059 -0.13229,-0.13229 v -0.2757 c 0,-0.073 0.0593,-0.13229 0.13229,-0.13229 h 0.022 c 0.073,0 0.1323,0.0593 0.1323,0.13229 z"
         inkscape:connector-curvature="0" />
      <path
         style="stroke-width:0.264583"
         id="path167858"
         d="m 245.65914,155.29169 h -0.17648 c -0.073,0 -0.13229,0.0593 -0.13229,0.13229 v 0.70565 c 0,0.0728 0.0593,0.13229 0.13229,0.13229 h 0.17648 c 0.073,0 0.13229,-0.0595 0.13229,-0.13229 v -0.70565 c 0,-0.073 -0.0593,-0.13229 -0.13229,-0.13229 z m 0.055,0.61754 c 0,0.0733 -0.0593,0.13229 -0.13229,0.13229 h -0.022 c -0.073,0 -0.13229,-0.059 -0.13229,-0.13229 v -0.2757 c 0,-0.073 0.0593,-0.13229 0.13229,-0.13229 h 0.022 c 0.073,0 0.13229,0.0593 0.13229,0.13229 z"
         inkscape:connector-curvature="0" />
      <path
         style="stroke-width:0.264583"
         id="path167860"
         d="m 250.76031,155.29169 h -0.17622 c -0.0733,0 -0.13229,0.0593 -0.13229,0.13229 v 0.70565 c 0,0.0728 0.059,0.13229 0.13229,0.13229 h 0.17622 c 0.0733,0 0.13229,-0.0595 0.13229,-0.13229 v -0.70565 c 0,-0.073 -0.0587,-0.13229 -0.13229,-0.13229 z m 0.0553,0.61754 c 0,0.0733 -0.0595,0.13229 -0.13229,0.13229 h -0.0222 c -0.0728,0 -0.13229,-0.059 -0.13229,-0.13229 v -0.2757 c 0,-0.073 0.0595,-0.13229 0.13229,-0.13229 h 0.0222 c 0.0728,0 0.13229,0.0593 0.13229,0.13229 z"
         inkscape:connector-curvature="0" />
      <path
         style="stroke-width:0.264583"
         id="path167862"
         d="m 249.05983,155.29169 h -0.17621 c -0.0733,0 -0.1323,0.0593 -0.1323,0.13229 v 0.70565 c 0,0.0728 0.059,0.13229 0.1323,0.13229 h 0.17621 c 0.0733,0 0.13229,-0.0595 0.13229,-0.13229 v -0.70565 c 0,-0.073 -0.059,-0.13229 -0.13229,-0.13229 z m 0.0553,0.61754 c 0,0.0733 -0.0595,0.13229 -0.1323,0.13229 h -0.0222 c -0.0728,0 -0.13229,-0.059 -0.13229,-0.13229 v -0.2757 c 0,-0.073 0.0595,-0.13229 0.13229,-0.13229 h 0.0222 c 0.0728,0 0.1323,0.0593 0.1323,0.13229 z"
         inkscape:connector-curvature="0" />
      <path
         style="stroke-width:0.264583"
         id="path167864"
         d="m 247.35935,155.29169 h -0.17621 c -0.0733,0 -0.13229,0.0593 -0.13229,0.13229 v 0.70565 c 0,0.0728 0.059,0.13229 0.13229,0.13229 h 0.17621 c 0.0733,0 0.13229,-0.0595 0.13229,-0.13229 v -0.70565 c 0,-0.073 -0.0587,-0.13229 -0.13229,-0.13229 z m 0.0553,0.61754 c 0,0.0733 -0.0595,0.13229 -0.13229,0.13229 h -0.0222 c -0.0728,0 -0.13229,-0.059 -0.13229,-0.13229 v -0.2757 c 0,-0.073 0.0595,-0.13229 0.13229,-0.13229 h 0.0222 c 0.0728,0 0.13229,0.0593 0.13229,0.13229 z"
         inkscape:connector-curvature="0" />
      <path
         style="stroke-width:0.264583"
         id="path167866"
         d="m 243.95866,157.00884 h -0.17648 c -0.073,0 -0.13229,0.0593 -0.13229,0.13229 v 0.70564 c 0,0.0728 0.0593,0.1323 0.13229,0.1323 h 0.17648 c 0.073,0 0.13229,-0.0595 0.13229,-0.1323 v -0.70564 c 0,-0.073 -0.0593,-0.13229 -0.13229,-0.13229 z m 0.055,0.61727 c 0,0.0733 -0.0593,0.13229 -0.1323,0.13229 h -0.022 c -0.073,0 -0.13229,-0.059 -0.13229,-0.13229 v -0.27543 c 0,-0.0733 0.0593,-0.13229 0.13229,-0.13229 h 0.022 c 0.073,0 0.1323,0.059 0.1323,0.13229 z"
         inkscape:connector-curvature="0" />
      <path
         style="stroke-width:0.264583"
         id="path167868"
         d="m 245.65914,157.00884 h -0.17648 c -0.073,0 -0.13229,0.0593 -0.13229,0.13229 v 0.70564 c 0,0.0728 0.0593,0.1323 0.13229,0.1323 h 0.17648 c 0.073,0 0.13229,-0.0595 0.13229,-0.1323 v -0.70564 c 0,-0.073 -0.0593,-0.13229 -0.13229,-0.13229 z m 0.055,0.61727 c 0,0.0733 -0.0593,0.13229 -0.13229,0.13229 h -0.022 c -0.073,0 -0.13229,-0.059 -0.13229,-0.13229 v -0.27543 c 0,-0.0733 0.0593,-0.13229 0.13229,-0.13229 h 0.022 c 0.073,0 0.13229,0.059 0.13229,0.13229 z"
         inkscape:connector-curvature="0" />
      <path
         style="stroke-width:0.264583"
         id="path167870"
         d="m 250.76031,157.00884 h -0.17622 c -0.0733,0 -0.13229,0.0593 -0.13229,0.13229 v 0.70564 c 0,0.0728 0.059,0.1323 0.13229,0.1323 h 0.17622 c 0.0733,0 0.13229,-0.0595 0.13229,-0.1323 v -0.70564 c 0,-0.073 -0.0587,-0.13229 -0.13229,-0.13229 z m 0.0553,0.61727 c 0,0.0733 -0.0595,0.13229 -0.13229,0.13229 h -0.0222 c -0.0728,0 -0.13229,-0.059 -0.13229,-0.13229 v -0.27543 c 0,-0.0733 0.0595,-0.13229 0.13229,-0.13229 h 0.0222 c 0.0728,0 0.13229,0.059 0.13229,0.13229 z"
         inkscape:connector-curvature="0" />
      <path
         style="stroke-width:0.264583"
         id="path167872"
         d="m 249.05983,157.00884 h -0.17621 c -0.0733,0 -0.1323,0.0593 -0.1323,0.13229 v 0.70564 c 0,0.0728 0.059,0.1323 0.1323,0.1323 h 0.17621 c 0.0733,0 0.13229,-0.0595 0.13229,-0.1323 v -0.70564 c 0,-0.073 -0.059,-0.13229 -0.13229,-0.13229 z m 0.0553,0.61727 c 0,0.0733 -0.0595,0.13229 -0.1323,0.13229 h -0.0222 c -0.0728,0 -0.13229,-0.059 -0.13229,-0.13229 v -0.27543 c 0,-0.0733 0.0595,-0.13229 0.13229,-0.13229 h 0.0222 c 0.0728,0 0.1323,0.059 0.1323,0.13229 z"
         inkscape:connector-curvature="0" />
      <path
         style="stroke-width:0.264583"
         id="path167874"
         d="m 247.35935,157.00884 h -0.17621 c -0.0733,0 -0.13229,0.0593 -0.13229,0.13229 v 0.70564 c 0,0.0728 0.059,0.1323 0.13229,0.1323 h 0.17621 c 0.0733,0 0.13229,-0.0595 0.13229,-0.1323 v -0.70564 c 0,-0.073 -0.0587,-0.13229 -0.13229,-0.13229 z m 0.0553,0.61727 c 0,0.0733 -0.0595,0.13229 -0.13229,0.13229 h -0.0222 c -0.0728,0 -0.13229,-0.059 -0.13229,-0.13229 v -0.27543 c 0,-0.0733 0.0595,-0.13229 0.13229,-0.13229 h 0.0222 c 0.0728,0 0.13229,0.059 0.13229,0.13229 z"
         inkscape:connector-curvature="0" />
      <path
         style="stroke-width:0.264583"
         id="path167876"
         d="m 243.95866,158.72572 h -0.17648 c -0.073,0 -0.13229,0.0593 -0.13229,0.13229 v 0.70564 c 0,0.0728 0.0593,0.1323 0.13229,0.1323 h 0.17648 c 0.073,0 0.13229,-0.0595 0.13229,-0.1323 v -0.70564 c 0,-0.073 -0.0593,-0.13229 -0.13229,-0.13229 z m 0.055,0.61727 c 0,0.0733 -0.0593,0.13229 -0.1323,0.13229 h -0.022 c -0.073,0 -0.13229,-0.059 -0.13229,-0.13229 v -0.27543 c 0,-0.0733 0.0593,-0.13229 0.13229,-0.13229 h 0.022 c 0.073,0 0.1323,0.059 0.1323,0.13229 z"
         inkscape:connector-curvature="0" />
      <path
         style="stroke-width:0.264583"
         id="path167878"
         d="m 245.65914,158.72572 h -0.17648 c -0.073,0 -0.13229,0.0593 -0.13229,0.13229 v 0.70564 c 0,0.0728 0.0593,0.1323 0.13229,0.1323 h 0.17648 c 0.073,0 0.13229,-0.0595 0.13229,-0.1323 v -0.70564 c 0,-0.073 -0.0593,-0.13229 -0.13229,-0.13229 z m 0.055,0.61727 c 0,0.0733 -0.0593,0.13229 -0.13229,0.13229 h -0.022 c -0.073,0 -0.13229,-0.059 -0.13229,-0.13229 v -0.27543 c 0,-0.0733 0.0593,-0.13229 0.13229,-0.13229 h 0.022 c 0.073,0 0.13229,0.059 0.13229,0.13229 z"
         inkscape:connector-curvature="0" />
      <path
         style="stroke-width:0.264583"
         id="path167880"
         d="m 250.76031,158.72572 h -0.17622 c -0.0733,0 -0.13229,0.0593 -0.13229,0.13229 v 0.70564 c 0,0.0728 0.059,0.1323 0.13229,0.1323 h 0.17622 c 0.0733,0 0.13229,-0.0595 0.13229,-0.1323 v -0.70564 c 0,-0.073 -0.0587,-0.13229 -0.13229,-0.13229 z m 0.0553,0.61727 c 0,0.0733 -0.0595,0.13229 -0.13229,0.13229 h -0.0222 c -0.0728,0 -0.13229,-0.059 -0.13229,-0.13229 v -0.27543 c 0,-0.0733 0.0595,-0.13229 0.13229,-0.13229 h 0.0222 c 0.0728,0 0.13229,0.059 0.13229,0.13229 z"
         inkscape:connector-curvature="0" />
      <path
         style="stroke-width:0.264583"
         id="path167882"
         d="m 249.05983,158.72572 h -0.17621 c -0.0733,0 -0.1323,0.0593 -0.1323,0.13229 v 0.70564 c 0,0.0728 0.059,0.1323 0.1323,0.1323 h 0.17621 c 0.0733,0 0.13229,-0.0595 0.13229,-0.1323 v -0.70564 c 0,-0.073 -0.059,-0.13229 -0.13229,-0.13229 z m 0.0553,0.61727 c 0,0.0733 -0.0595,0.13229 -0.1323,0.13229 h -0.0222 c -0.0728,0 -0.13229,-0.059 -0.13229,-0.13229 v -0.27543 c 0,-0.0733 0.0595,-0.13229 0.13229,-0.13229 h 0.0222 c 0.0728,0 0.1323,0.059 0.1323,0.13229 z"
         inkscape:connector-curvature="0" />
      <path
         style="stroke-width:0.264583"
         id="path167884"
         d="m 247.35935,158.72572 h -0.17621 c -0.0733,0 -0.13229,0.0593 -0.13229,0.13229 v 0.70564 c 0,0.0728 0.059,0.1323 0.13229,0.1323 h 0.17621 c 0.0733,0 0.13229,-0.0595 0.13229,-0.1323 v -0.70564 c 0,-0.073 -0.0587,-0.13229 -0.13229,-0.13229 z m 0.0553,0.61727 c 0,0.0733 -0.0595,0.13229 -0.13229,0.13229 h -0.0222 c -0.0728,0 -0.13229,-0.059 -0.13229,-0.13229 v -0.27543 c 0,-0.0733 0.0595,-0.13229 0.13229,-0.13229 h 0.0222 c 0.0728,0 0.13229,0.059 0.13229,0.13229 z"
         inkscape:connector-curvature="0" />
      <path
         style="stroke-width:0.264583"
         id="path167886"
         d="m 248.16421,148.20721 h -1.78593 c -0.57547,0 -1.04193,0.46646 -1.04193,1.04193 0,0.57547 0.46646,1.04193 1.04193,1.04193 h 1.78593 c 0.57574,0 1.04193,-0.46646 1.04193,-1.04193 0,-0.57547 -0.46619,-1.04193 -1.04193,-1.04193 z m -0.0579,1.69518 h -1.67005 c -0.36063,0 -0.65326,-0.29236 -0.65326,-0.65325 0,-0.36089 0.29237,-0.65326 0.65326,-0.65326 h 1.67005 c 0.36063,0 0.65326,0.29237 0.65326,0.65326 0,0.36089 -0.29263,0.65325 -0.65326,0.65325 z"
         inkscape:connector-curvature="0" />
      <circle
         style="stroke-width:0.264583"
         id="circle167888"
         r="0.23151042"
         cy="149.23671"
         cx="246.41135" />
      <circle
         style="stroke-width:0.264583"
         id="circle167890"
         r="0.23151042"
         cy="149.23671"
         cx="248.13113" />
      <path
         style="stroke-width:0.264583"
         id="path167892"
         d="m 239.90419,153.73885 h -2.29844 c -0.21881,0 -0.39687,0.17807 -0.39687,0.39688 v 2.2987 c 0,0.21881 0.17806,0.39687 0.39687,0.39687 h 2.2987 c 0.21881,0 0.39688,-0.17806 0.39688,-0.39687 v -2.2987 c -2.7e-4,-0.21908 -0.17833,-0.39688 -0.39714,-0.39688 z m 0.13229,2.69531 c 0,0.0728 -0.0593,0.13229 -0.13229,0.13229 h -2.29844 c -0.073,0 -0.13229,-0.0595 -0.13229,-0.13229 v -2.2987 c 0,-0.073 0.0593,-0.13229 0.13229,-0.13229 h 2.2987 c 0.073,0 0.13229,0.0593 0.13229,0.13229 v 2.2987 z"
         inkscape:connector-curvature="0" />
      <circle
         style="stroke-width:0.264583"
         id="circle167894"
         r="0.62838542"
         cy="155.28482"
         cx="238.75484" />
      <path
         style="stroke-width:0.264583"
         id="path167896"
         d="m 256.93674,153.73885 h -2.2987 c -0.21855,0 -0.39688,0.17807 -0.39688,0.39688 v 2.2987 c 0,0.21881 0.17833,0.39687 0.39688,0.39687 h 2.2987 c 0.21907,0 0.39687,-0.17806 0.39687,-0.39687 v -2.2987 c 0,-0.21908 -0.1778,-0.39688 -0.39687,-0.39688 z m 0.13229,2.69531 c 0,0.0728 -0.0595,0.13229 -0.13229,0.13229 h -2.2987 c -0.0728,0 -0.13229,-0.0595 -0.13229,-0.13229 v -2.2987 c 0,-0.073 0.0595,-0.13229 0.13229,-0.13229 h 2.2987 c 0.0728,0 0.13229,0.0593 0.13229,0.13229 z"
         inkscape:connector-curvature="0" />
      <circle
         style="stroke-width:0.264583"
         id="circle167898"
         r="0.62838542"
         cy="155.28482"
         cx="255.78738" />
    </g>
    <g
       id="g1722"
       transform="matrix(1.1088643,0,0,1.1088643,383.87559,169.27361)">
      <path
         id="path1948"
         style="fill:url(#linearGradient1478);fill-opacity:1;stroke-width:0.704633"
         d="M 66.356059,21.716568 C 63.206601,21.000484 60.140217,20.569109 57.38804,20.42206 49.281015,19.986701 47.197449,22.537389 45.962397,27.847697 l -1.631124,7.013289 18.401844,4.279832 -0.543704,2.337746 -18.401845,-4.279833 -6.906054,-1.606184 c -5.348077,-1.243836 -10.778635,0.881551 -13.665636,6.65596 -3.319771,6.616366 -4.411986,10.972881 -4.349669,18.70212 0.04103,5.752093 2.262073,10.360367 7.610175,11.604209 l 6.326956,1.4715 1.955357,-8.407381 c 1.412625,-6.073812 7.91392,-10.20919 14.154471,-8.757786 l 18.380418,4.27485 c 5.116437,1.189961 10.180703,-2.072815 11.375757,-7.211144 L 82.74466,36.402379 c 1.159864,-4.987024 -2.175959,-9.711705 -6.976201,-11.70547 -3.038786,-1.261421 -6.263158,-2.263324 -9.4124,-2.980341 z m -11.263466,3.326145 c 1.900795,0.44208 3.086131,2.380684 2.634983,4.320466 -0.449574,1.932901 -2.365313,3.134902 -4.266108,2.692823 -1.90759,-0.443661 -3.089495,-2.3661 -2.639946,-4.299008 0.451147,-1.939782 2.36348,-3.157941 4.271071,-2.714281 z" />
      <path
         id="path1950"
         style="fill:url(#linearGradient1475);fill-opacity:1;stroke-width:0.704633"
         d="m 82.864699,46.287145 -1.900488,8.171462 c -1.473419,6.335204 -8.084583,10.418178 -14.20934,8.993705 L 48.374453,59.177463 C 43.339777,58.006516 38.171349,61.34659 36.998695,66.388606 l -4.075323,17.522522 c -1.159857,4.986998 2.494495,8.928871 7.026094,11.49095 5.426647,3.067542 10.94052,4.676222 18.380418,4.27485 4.944705,-0.263866 10.140706,-1.900836 11.375751,-7.211118 l 1.631125,-7.013289 -18.380418,-4.274849 0.54371,-2.337772 18.380418,4.27485 9.200922,2.139916 c 5.348077,1.243836 8.208614,-2.023067 11.370768,-7.189692 3.261849,-5.317473 4.469353,-10.87978 4.34967,-18.70212 C 96.718384,53.731403 95.125652,49.138752 89.770753,47.89333 Z M 62.20657,88.257479 c 1.907591,0.443661 3.089515,2.366132 2.639973,4.299014 -0.451141,1.939756 -2.363507,3.157935 -4.271097,2.714275 -1.900795,-0.44208 -3.086099,-2.380704 -2.634958,-4.320459 0.449543,-1.932882 2.365287,-3.134909 4.266082,-2.69283 z" />
    </g>
  </g>
  <style
     id="style167059"
     type="text/css">
        .st3 {
            fill: #ffffff;
         }
	.st4 {
            animation-name: diamondFillMode;
            animation-duration: 10s;
            animation-iteration-count: 1000;
            animation-fill-mode: forwards;
        }
        @keyframes diamondFillMode {
            0%   { fill: #E1000F; }
            25%   { fill: #ff9940; }
            50%   { fill: #009d43; }
            75%   { fill: #5770be; }
            100% { fill: #E1000F; }
        }
</style>
</svg>
