<?xml version="1.0" encoding="UTF-8" standalone="no"?>
<!-- Created with Inkscape (http://www.inkscape.org/) -->

<svg
   width="1920"
   height="1080"
   viewBox="0 0 508.00001 285.74999"
   version="1.1"
   id="svg83642"
   inkscape:version="1.1.2 (0a00cf5339, 2022-02-04)"
   sodipodi:docname="background.svg"
   xmlns:inkscape="http://www.inkscape.org/namespaces/inkscape"
   xmlns:sodipodi="http://sodipodi.sourceforge.net/DTD/sodipodi-0.dtd"
   xmlns:xlink="http://www.w3.org/1999/xlink"
   xmlns="http://www.w3.org/2000/svg"
   xmlns:svg="http://www.w3.org/2000/svg"
   xmlns:rdf="http://www.w3.org/1999/02/22-rdf-syntax-ns#"
   xmlns:cc="http://creativecommons.org/ns#"
   xmlns:dc="http://purl.org/dc/elements/1.1/">
  <defs
     id="defs83636">
    <style
       id="style167263"
       type="text/css">
   
    .fil0 {fill:black;fill-rule:nonzero}
   
  </style>
    <inkscape:perspective
       id="perspective248522"
       inkscape:persp3d-origin="105 : 99 : 1"
       inkscape:vp_z="210 : 148.5 : 1"
       inkscape:vp_y="0 : 1000 : 0"
       inkscape:vp_x="0 : 148.5 : 1"
       sodipodi:type="inkscape:persp3d" />
    <symbol
       viewBox="0 0 544.94538 370.90805"
       id="university">
      <title
         id="title166506">university</title>
      <path
         id="path166508"
         d="M 67.079778,0.00100411 A 1.323049,1.323049 0 0 0 66.433824,0.14104807 L 0.72930808,33.138517 a 1.323049,1.323049 0 0 0 0.57619212,2.505274 l 81.8849238,1.098124 a 1.323049,1.323049 0 0 0 0.628901,-0.14986 L 143.47253,5.4895578 A 1.323049,1.323049 0 0 0 142.91288,2.994619 L 67.079778,0.00100279 Z M 117.96194,23.326195 a 1.323049,1.323049 0 0 0 -0.57877,0.159681 L 84.75467,41.2481 35.636221,39.847668 a 1.323049,1.323049 0 0 0 -1.290878,0.898136 l -7.099308,20.976498 a 1.323049,1.323049 0 0 0 1.532207,1.717209 c 0.599967,-0.129678 0.746342,-0.272902 1.252636,-0.513146 0.506293,-0.240245 1.167553,-0.560292 1.984891,-0.935861 1.634675,-0.751141 3.888287,-1.723395 6.662126,-2.679424 5.54768,-1.912057 13.168154,-3.753149 22.010026,-3.60443 4.419595,0.07433 11.918712,1.853661 18.18132,3.635436 6.262605,1.781776 11.349694,3.543454 11.349694,3.543454 a 1.323049,1.323049 0 0 0 1.43247,-0.382924 c 0,0 9.475885,-10.81823 16.353005,-15.09055 3.30806,-2.055085 9.22262,-3.676081 14.22601,-4.684985 5.00338,-1.008907 9.10848,-1.461929 9.10848,-1.461929 a 1.323049,1.323049 0 0 0 0.85783,-2.178161 L 119.0177,23.784567 a 1.323049,1.323049 0 0 0 -1.05576,-0.458372 z m -87.615319,16.256374 -7.945769,0.115755 c -1.10871,1.847996 -1.907318,4.168381 -2.761588,6.928776 -1.230992,3.977693 -2.272733,8.74394 -2.885612,13.49375 -0.584605,4.530683 -1.020568,8.439841 -1.347205,11.759488 -3.770447,0.602589 -6.7228739,3.765786 -6.9995725,7.63106 a 1.323049,1.323049 0 0 0 -0.00517,0.01394 1.323049,1.323049 0 0 0 -0.03359,0.127642 1.323049,1.323049 0 0 0 -0.021188,0.130742 1.323049,1.323049 0 0 0 -0.00156,0.01757 L 7.2115878,93.883123 a 1.323049,1.323049 0 0 0 0.1808676,0.760677 1.323049,1.323049 0 0 0 0.1565796,0.212907 1.323049,1.323049 0 0 0 0.1953369,0.17725 1.323049,1.323049 0 0 0 0.2273763,0.135393 1.323049,1.323049 0 0 0 0.122473,0.04961 1.323049,1.323049 0 0 0 0.38809,0.0739 1.323049,1.323049 0 0 0 0.1322917,-0.0021 1.323049,1.323049 0 0 0 0.1317749,-0.01498 1.323049,1.323049 0 0 0 0.129191,-0.02791 1.323049,1.323049 0 0 0 0.1255739,-0.04031 1.323049,1.323049 0 0 0 0.686263,-0.593762 1.323049,1.323049 0 0 0 0.058394,-0.11834 1.323049,1.323049 0 0 0 0.057878,-0.167431 l -0.051677,0.641821 a 1.323049,1.323049 0 0 0 0.1813843,0.760677 1.323049,1.323049 0 0 0 0.15658,0.212908 1.323049,1.323049 0 0 0 0.195337,0.177765 1.323049,1.323049 0 0 0 0.226859,0.134877 1.323049,1.323049 0 0 0 0.122474,0.05012 1.323049,1.323049 0 0 0 0.388606,0.07338 1.323049,1.323049 0 0 0 0.132292,-0.0016 1.323049,1.323049 0 0 0 0.131258,-0.01498 1.323049,1.323049 0 0 0 0.129708,-0.02791 1.323049,1.323049 0 0 0 0.125574,-0.04082 1.323049,1.323049 0 0 0 0.310575,-0.170016 1.323049,1.323049 0 0 0 0.120406,0.332795 1.323049,1.323049 0 0 0 0.0677,0.113689 1.323049,1.323049 0 0 0 0.2651,0.293524 1.323049,1.323049 0 0 0 0.220142,0.146243 1.323049,1.323049 0 0 0 0.244946,0.09922 1.323049,1.323049 0 0 0 0.259416,0.04857 1.323049,1.323049 0 0 0 0.645956,-0.106968 1.323049,1.323049 0 0 0 0.118338,-0.05943 1.323049,1.323049 0 0 0 0.111622,-0.0708 1.323049,1.323049 0 0 0 0.103869,-0.08113 1.323049,1.323049 0 0 0 0.0956,-0.09147 1.323049,1.323049 0 0 0 0.225309,-0.325046 1.323049,1.323049 0 0 0 0.05219,-0.121438 1.323049,1.323049 0 0 0 0.04444,-0.143145 l 0.343648,-1.474846 c 0.01652,0.0038 0.03351,0.0063 0.05013,0.0098 l -0.324528,1.393198 a 1.323049,1.323049 0 0 0 -0.03049,0.262515 1.323049,1.323049 0 0 0 0.152446,0.636653 1.323049,1.323049 0 0 0 0.0677,0.113689 1.323049,1.323049 0 0 0 0.2651,0.293524 1.323049,1.323049 0 0 0 0.220141,0.146243 1.323049,1.323049 0 0 0 0.244947,0.09922 1.323049,1.323049 0 0 0 0.259415,0.04857 1.323049,1.323049 0 0 0 0.645956,-0.106968 1.323049,1.323049 0 0 0 0.118339,-0.05943 1.323049,1.323049 0 0 0 0.111621,-0.0708 1.323049,1.323049 0 0 0 0.103869,-0.08113 1.323049,1.323049 0 0 0 0.0956,-0.09147 1.323049,1.323049 0 0 0 0.21394,-0.304374 1.323049,1.323049 0 0 0 0.0217,0.127641 1.323049,1.323049 0 0 0 0.03566,0.12764 1.323049,1.323049 0 0 0 0.260449,0.456303 1.323049,1.323049 0 0 0 0.09198,0.09508 1.323049,1.323049 0 0 0 0.210323,0.160198 1.323049,1.323049 0 0 0 0.115755,0.06356 1.323049,1.323049 0 0 0 0.248047,0.09095 1.323049,1.323049 0 0 0 0.393775,0.03979 1.323049,1.323049 0 0 0 0.131258,-0.01291 1.323049,1.323049 0 0 0 0.256315,-0.06511 1.323049,1.323049 0 0 0 0.237712,-0.114204 1.323049,1.323049 0 0 0 0.21084,-0.159682 1.323049,1.323049 0 0 0 0.09198,-0.09509 1.323049,1.323049 0 0 0 0.153995,-0.214455 1.323049,1.323049 0 0 0 0.113689,-0.257866 l 2.221054,-7.31325 c 0.238419,-0.404844 0.46717,-0.819986 0.685229,-1.243851 1.520632,-2.955816 2.59674,-6.057487 2.59674,-8.553482 0,-3.160048 -1.791176,-5.92733 -4.40645,-7.337538 0.325576,-3.331565 0.765442,-7.295391 1.368393,-11.968261 0.572876,-4.439788 1.562452,-8.974741 2.687174,-12.609049 1.124723,-3.634309 2.692805,-6.488026 3.092318,-6.879167 0.935919,-0.916308 1.750489,-1.376267 2.282032,-1.612305 0.118501,-0.05262 0.206554,-0.08561 0.281119,-0.115755 z m -12.689665,54.725858 -0.123507,0.405659 0.09095,-0.390673 c 0.01075,-0.0052 0.02186,-0.0097 0.03256,-0.01498 z"
         inkscape:connector-curvature="0"
         style="stroke-width:1" />
    </symbol>
    <symbol
       viewBox="0 0 20 20"
       id="share">
      <title
         id="title172778">share</title>
      <path
         id="path172780"
         d="m 3.8364583,3.175 c 0.4392084,0 0.79375,0.3545417 0.79375,0.79375 0,0.4392083 -0.3545416,0.79375 -0.79375,0.79375 -0.4392083,0 -0.79375,-0.3545417 -0.79375,-0.79375 0,-0.0635 0.00794,-0.1217083 0.023813,-0.1825625 L 1.9076458,3.1776458 C 1.762125,3.3390417 1.55575,3.4395833 1.3229167,3.4395833 c -0.43920837,0 -0.79375003,-0.3545416 -0.79375003,-0.79375 0,-0.4392083 0.35454166,-0.79375 0.79375003,-0.79375 0.2328333,0 0.4392083,0.1031875 0.5847291,0.2619375 L 3.0665208,1.5054792 C 3.0506458,1.444625 3.0427083,1.3864167 3.0427083,1.3229167 c 0,-0.43920837 0.3545417,-0.79375003 0.79375,-0.79375003 0.4392084,0 0.79375,0.35454166 0.79375,0.79375003 0,0.4392083 -0.3545416,0.79375 -0.79375,0.79375 -0.2328333,0 -0.4392083,-0.1031875 -0.5847291,-0.2619375 l -1.158875,0.6085416 a 0.70537917,0.70537917 0 0 1 0,0.365125 l 1.158875,0.6085417 C 3.39725,3.2755417 3.603625,3.175 3.8364583,3.175 Z"
         inkscape:connector-curvature="0"
         style="stroke-width:1" />
    </symbol>
    <linearGradient
       id="linearGradient2795">
      <stop
         style="stop-color:#b8b8b8;stop-opacity:0.49803922"
         offset="0"
         id="stop2797" />
      <stop
         style="stop-color:#7f7f7f;stop-opacity:0"
         offset="1"
         id="stop2799" />
    </linearGradient>
    <linearGradient
       id="linearGradient2787">
      <stop
         style="stop-color:#7f7f7f;stop-opacity:0.5"
         offset="0"
         id="stop2789" />
      <stop
         style="stop-color:#7f7f7f;stop-opacity:0"
         offset="1"
         id="stop2791" />
    </linearGradient>
    <linearGradient
       id="linearGradient3676">
      <stop
         style="stop-color:#b2b2b2;stop-opacity:0.5"
         offset="0"
         id="stop3678" />
      <stop
         style="stop-color:#b3b3b3;stop-opacity:0"
         offset="1"
         id="stop3680" />
    </linearGradient>
    <linearGradient
       id="linearGradient3236">
      <stop
         style="stop-color:#f4f4f4;stop-opacity:1"
         offset="0"
         id="stop3244" />
      <stop
         style="stop-color:#ffffff;stop-opacity:1"
         offset="1"
         id="stop3240" />
    </linearGradient>
    <linearGradient
       id="linearGradient4671">
      <stop
         style="stop-color:#ffd43b;stop-opacity:1"
         offset="0"
         id="stop4673" />
      <stop
         style="stop-color:#ffe873;stop-opacity:1"
         offset="1"
         id="stop4675" />
    </linearGradient>
    <linearGradient
       id="linearGradient4689">
      <stop
         style="stop-color:#5a9fd4;stop-opacity:1"
         offset="0"
         id="stop4691" />
      <stop
         style="stop-color:#306998;stop-opacity:1"
         offset="1"
         id="stop4693" />
    </linearGradient>
    <linearGradient
       x1="224.23996"
       y1="144.75717"
       x2="-65.308502"
       y2="144.75717"
       id="linearGradient2987"
       xlink:href="#linearGradient4671"
       gradientUnits="userSpaceOnUse"
       gradientTransform="translate(100.2702,99.61116)" />
    <linearGradient
       x1="172.94208"
       y1="77.475983"
       x2="26.670298"
       y2="76.313133"
       id="linearGradient2990"
       xlink:href="#linearGradient4689"
       gradientUnits="userSpaceOnUse"
       gradientTransform="translate(100.2702,99.61116)" />
    <linearGradient
       x1="224.23996"
       y1="144.75717"
       x2="-65.308502"
       y2="144.75717"
       id="linearGradient2255"
       xlink:href="#linearGradient4671"
       gradientUnits="userSpaceOnUse"
       gradientTransform="matrix(0.562541,0,0,0.567972,-11.5974,-7.60954)" />
    <linearGradient
       x1="172.94208"
       y1="76.176224"
       x2="26.670298"
       y2="76.313133"
       id="linearGradient2258"
       xlink:href="#linearGradient4689"
       gradientUnits="userSpaceOnUse"
       gradientTransform="matrix(0.562541,0,0,0.567972,-11.5974,-7.60954)" />
    <radialGradient
       cx="61.518883"
       cy="132.28575"
       r="29.036913"
       fx="61.518883"
       fy="132.28575"
       id="radialGradient2801"
       xlink:href="#linearGradient2795"
       gradientUnits="userSpaceOnUse"
       gradientTransform="matrix(1,0,0,0.177966,0,108.7434)" />
    <linearGradient
       x1="150.96111"
       y1="192.35176"
       x2="112.03144"
       y2="137.27299"
       id="linearGradient1475"
       xlink:href="#linearGradient4671"
       gradientUnits="userSpaceOnUse"
       gradientTransform="matrix(0.38608085,0.08979325,-0.09066015,0.38980822,20.243858,2.525323)" />
    <linearGradient
       x1="26.648937"
       y1="20.603781"
       x2="135.66525"
       y2="114.39767"
       id="linearGradient1478"
       xlink:href="#linearGradient4689"
       gradientUnits="userSpaceOnUse"
       gradientTransform="matrix(0.38608085,0.08979325,-0.09066015,0.38980822,20.243858,2.525323)" />
    <radialGradient
       cx="61.518883"
       cy="132.28575"
       r="29.036913"
       fx="61.518883"
       fy="132.28575"
       id="radialGradient1480"
       xlink:href="#linearGradient2795"
       gradientUnits="userSpaceOnUse"
       gradientTransform="matrix(0.03830053,-0.16467943,0.72383541,0.16834723,-51.520515,97.363288)" />
  </defs>
  <sodipodi:namedview
     id="base"
     pagecolor="#ffffff"
     bordercolor="#666666"
     borderopacity="1.0"
     inkscape:pageopacity="0.0"
     inkscape:pageshadow="2"
     inkscape:zoom="0.32"
     inkscape:cx="819.47582"
     inkscape:cy="950.38407"
     inkscape:document-units="mm"
     inkscape:current-layer="layer1"
     showgrid="false"
     units="px"
     showguides="true"
     inkscape:guide-bbox="true"
     inkscape:window-width="1866"
     inkscape:window-height="1016"
     inkscape:window-x="54"
     inkscape:window-y="147"
     inkscape:window-maximized="1"
     inkscape:pagecheckerboard="0"
     inkscape:rotation="-1" />
  <metadata
     id="metadata83639">
    <rdf:RDF>
      <cc:Work
         rdf:about="">
        <dc:format>image/svg+xml</dc:format>
        <dc:type
           rdf:resource="http://purl.org/dc/dcmitype/StillImage" />
      </cc:Work>
    </rdf:RDF>
  </metadata>
  <g
     inkscape:label="Layer 1"
     inkscape:groupmode="layer"
     id="layer1"
     transform="translate(0,-11.25001)">
    <rect
       style="fill:#f4821f;fill-opacity:1;stroke:#fdfdfd;stroke-width:0.00661195;stroke-miterlimit:1;-inkscape-stroke:none;paint-order:stroke markers fill;stop-color:#000000"
       id="rect4884"
       width="509.58319"
       height="30.589602"
       x="-1.070666"
       y="11.074924" />
    <path
       id="path1047"
       style="fill:#000000;stroke-width:0.999995;stroke-miterlimit:4;stroke-dasharray:none"
       d="m 252.22674,200.68344 c -1.4749,0.1306 -2.97652,0.0991 -4.43492,0.32947 -1.77776,0.50684 -3.59425,0.90807 -5.34872,1.47773 -1.50473,0.70541 -3.01088,1.40796 -4.39461,2.33628 -1.34153,0.83136 -2.457,1.97982 -3.70535,2.94206 -1.01553,0.94562 -1.80575,2.11741 -2.73416,3.1506 -0.903,1.09951 -1.46711,2.43654 -2.22934,3.63495 -0.64614,1.18181 -1.01099,2.50086 -1.53076,3.7422 -0.49289,1.97263 -1.01099,3.95334 -1.06237,5.99831 -0.15194,1.48953 0.008,2.99332 0.0899,4.48165 0.28226,1.52295 0.38872,3.08943 0.99814,4.53028 0.48134,1.59536 1.14665,3.12872 1.92278,4.59999 0.80179,1.31351 1.56221,2.65651 2.60006,3.8037 1.0083,1.42353 2.39013,2.50151 3.6387,3.70034 1.50363,1.02812 2.98389,2.08621 4.33554,3.3112 1.81493,1.50778 3.37313,3.30085 4.8285,5.14995 0.56856,0.9265 1.28212,1.78302 1.75663,2.75085 0.2563,1.09773 0.51318,2.19534 0.77111,3.29268 -0.759,0.20822 -1.51692,0.42026 -2.27581,0.62888 0.37266,1.72333 0.74587,3.44652 1.11667,5.17028 -0.97342,0.31206 -1.94718,0.62259 -2.92169,0.93138 0.21737,0.451 0.43168,0.9029 0.65096,1.35293 0.85086,-0.3396 1.73235,-0.59253 2.60045,-0.88382 0.23598,1.11335 0.58195,2.27443 0.74953,3.35849 -0.92237,0.30015 -1.8452,0.59888 -2.767,0.90079 0.15409,0.41502 0.14047,1.13208 0.40414,1.36215 0.90866,-0.28979 1.81777,-0.57823 2.72659,-0.86756 0.23843,1.0958 0.55784,2.23017 0.74613,3.30239 -0.71576,0.3521 -1.55895,0.35975 -2.24929,0.80197 -0.72563,0.0724 -0.38402,0.66704 -0.28704,1.14215 -0.0125,0.75876 0.80377,0.0548 1.23145,0.0371 0.55783,-0.17791 1.11576,-0.3555 1.67371,-0.53302 0.22369,0.81398 0.44636,1.62827 0.66965,2.44237 2.51778,-0.55954 5.03551,-1.11923 7.55318,-1.67925 0.26193,1.1124 0.52069,2.22553 0.78184,3.3381 4.10545,-0.96268 8.21142,-1.92318 12.31724,-2.88429 -0.22481,-1.09503 -0.44686,-2.19063 -0.67305,-3.2854 2.51432,-0.61867 5.02868,-1.23725 7.54297,-1.85599 -0.39955,-1.70879 -0.79967,-3.41747 -1.19994,-5.1261 0.95029,-0.42464 1.96355,-0.68682 2.94208,-1.03847 -0.15708,-0.40952 -0.14111,-1.12086 -0.40428,-1.34731 -0.96335,0.30049 -1.92271,0.60469 -2.88453,0.90711 -0.25457,-1.08772 -0.50893,-2.17551 -0.76313,-3.2633 0.98921,-0.33056 1.96173,-0.70549 2.93187,-1.08778 -0.15528,-0.40089 -0.14105,-1.09966 -0.39736,-1.31803 -0.96091,0.30526 -1.92219,0.60941 -2.88293,0.91522 -0.25399,-1.08798 -0.50912,-2.17571 -0.76483,-3.26327 1.04115,-0.35516 2.1299,-0.60026 3.05424,-1.22374 -0.31791,-0.28764 -0.4184,-1.13725 -0.90903,-0.97272 -0.82492,0.25875 -1.68595,0.41355 -2.47833,0.76706 -0.2074,-0.87844 -0.41138,-1.7577 -0.61868,-2.63614 -0.79529,0.18346 -1.58966,0.37082 -2.38459,0.55578 -0.22994,-1.15756 -0.62298,-2.30685 -0.74975,-3.46995 0.20851,-1.66868 0.36471,-3.34698 0.85342,-4.96363 0.37769,-1.80259 1.0137,-3.53767 1.7287,-5.23041 0.62043,-1.44878 1.32718,-2.85484 2.12608,-4.21277 0.61199,-1.76149 1.48569,-3.44436 1.78483,-5.29953 0.41039,-1.55741 0.51306,-3.17257 0.64932,-4.76975 -0.089,-1.47703 0.12526,-2.99165 -0.3254,-4.4242 -0.42739,-1.75439 -0.77814,-3.53469 -1.2502,-5.27376 -0.78804,-1.6067 -1.42841,-3.29399 -2.48776,-4.75087 -0.9049,-1.53975 -2.20182,-2.7947 -3.32012,-4.17511 -1.15727,-0.91076 -2.20213,-1.98069 -3.43383,-2.7863 -1.34345,-0.75215 -2.62356,-1.63614 -4.00534,-2.30866 -1.53652,-0.56769 -3.04793,-1.21779 -4.67042,-1.50273 -1.69919,-0.51351 -3.48015,-0.52896 -5.23179,-0.71244 z m 1.71324,1.60954 c 1.76372,0.0603 3.44053,0.66748 5.15839,1.01639 1.5938,0.7022 3.29304,1.19759 4.72537,2.21709 1.15058,0.71386 2.35931,1.3491 3.31034,2.33235 0.98405,0.83986 1.95679,1.69054 2.72459,2.74059 0.84956,0.94116 1.59278,1.95805 2.19671,3.07409 0.90742,1.34789 1.50733,2.86335 2.14044,4.34932 0.36538,1.7071 0.87714,3.39218 1.14874,5.11337 0.14811,1.47009 0.1592,2.94106 0.0339,4.41325 -0.0466,1.3386 -0.31773,2.66638 -0.62261,3.96615 -0.15393,0.4779 -0.2595,-0.82871 -0.39265,-1.11732 -1.5286,-6.42016 -3.05589,-12.84062 -4.58612,-19.26037 -1.85246,0.46799 -3.70381,0.94036 -5.55611,1.409 2.1665,9.49288 4.33191,18.98601 6.4977,28.47906 -0.44234,1.24976 -0.98235,2.4683 -1.27303,3.76639 -1.97074,-8.29371 -3.93918,-16.58799 -5.91302,-24.88094 -1.83503,0.42707 -3.66936,0.85708 -5.50341,1.28832 2.65985,11.47682 5.31852,22.9539 7.97638,34.43119 -0.70777,0.16535 -1.41538,0.33135 -2.12285,0.49799 -1.34651,-5.63404 -2.69647,-11.26725 -4.04342,-16.90117 -1.86989,0.39911 -3.73919,0.80114 -5.6088,1.20164 1.32877,5.67505 2.65727,11.35012 3.98564,17.02526 -0.7603,0.17789 -1.5206,0.35577 -2.28091,0.53366 -1.89806,-8.10665 -3.79524,-16.2135 -5.69377,-24.32006 -1.83417,0.43129 -3.66911,0.85926 -5.50342,1.29004 1.86655,8.09298 3.73119,16.18646 5.5986,24.27926 -0.42515,0.0159 -1.22062,0.66243 -1.17842,-0.11604 -0.28245,-1.03914 -0.42181,-2.13778 -0.79109,-3.14048 -0.57896,-0.96858 -1.30412,-1.87499 -1.79237,-2.88208 -0.80508,-3.4372 -1.60886,-6.87473 -2.41289,-10.31219 -1.84756,0.46943 -3.69543,0.93767 -5.5425,1.40901 -2.7e-4,0.37488 0.41291,1.41354 0.13063,1.33735 -1.30217,-0.9222 -2.54933,-1.91073 -3.68646,-3.03244 -0.91586,-0.89674 -1.69506,-1.93478 -2.49928,-2.93006 -0.93864,-1.51591 -1.9144,-3.01197 -2.59665,-4.66614 -0.57349,-1.19637 -0.67527,-2.55688 -1.03899,-3.82624 -0.28851,-1.44492 -0.83869,-2.85766 -0.73216,-4.35117 -0.0693,-1.58686 0.10032,-3.17619 0.29253,-4.74698 0.34919,-1.55841 0.63497,-3.13583 1.28547,-4.60456 0.34349,-1.00738 0.72476,-1.99621 1.36113,-2.85967 0.77159,-1.16224 1.41057,-2.42555 2.26896,-3.52175 1.13011,-1.21727 2.19811,-2.50005 3.54361,-3.49088 1.22774,-1.14244 2.74061,-1.89165 4.15753,-2.76385 1.40141,-0.57299 2.73067,-1.363 4.2485,-1.58458 1.41072,-0.28694 2.80387,-0.71588 4.22538,-0.91432 1.45523,-0.005 2.91121,-0.13329 4.36031,0.0524 z m 6.00821,4.86605 c -1.45315,0.52416 -2.90663,1.04742 -4.35958,1.57215 0.0831,0.35931 -0.35076,1.04861 0.15201,1.13272 0.67443,0.39833 1.33704,-0.19214 2.00414,-0.34875 0.4253,-0.11855 1.29172,-0.65867 0.7711,0.12831 -1.91853,4.62462 -3.84263,9.24654 -5.74864,13.87624 -2.58342,0.6057 -5.16752,1.20862 -7.75033,1.81692 -2.74862,3.63825 -5.49456,7.27853 -8.24323,10.91676 0.0895,0.39709 -0.0585,1.08689 0.16126,1.30777 0.49527,-0.0985 1.01815,-0.15911 1.23583,-0.68488 2.58669,-3.4362 5.17478,-6.87136 7.76394,-10.30571 2.64969,-0.62116 5.29975,-1.24067 7.9492,-1.86278 2.05668,-4.98434 4.11516,-9.9679 6.17307,-14.95171 0.32414,0.80354 0.53352,1.69739 0.92902,2.44476 0.39519,0.20702 0.901,0.86922 1.06466,0.11313 0.34388,-0.38677 0.31356,-0.80271 0.0637,-1.24047 -0.45064,-1.24211 -0.89832,-2.48528 -1.3485,-3.72757 -0.26738,-0.0523 -0.55,-0.31417 -0.81752,-0.18695 z m 11.28725,16.38449 c 0.85776,3.66382 1.71551,7.32768 2.57326,10.99153 -0.60583,1.36752 -1.29623,2.69443 -1.96477,4.03153 -1.95743,-8.35754 -3.9142,-16.71522 -5.87054,-25.07301 0.91975,-0.21368 1.83924,-0.4284 2.7585,-0.64416 0.83451,3.56471 1.66904,7.1294 2.50355,10.69411 z m -5.62578,11.0663 c 1.03848,4.43548 2.07695,8.87098 3.11544,13.30645 -0.11064,0.97869 -0.38064,1.96049 -0.39463,2.93739 0.25944,1.32776 0.51863,2.65555 0.77704,3.98352 -0.5781,0.15434 -1.15099,0.31318 -1.72853,0.46911 -2.57219,-10.98587 -5.14432,-21.97174 -7.71633,-32.95763 0.97299,-0.22613 1.94575,-0.45331 2.91827,-0.68154 1.00958,4.31422 2.01916,8.62846 3.02874,12.9427 z m -13.73475,12.22888 c 0.89515,3.82418 1.79029,7.64836 2.68543,11.47253 -0.91946,0.21548 -1.83895,0.43077 -2.75851,0.64586 -1.79007,-7.64897 -3.58036,-15.29789 -5.37085,-22.94677 0.91946,-0.21546 1.83896,-0.43076 2.75851,-0.64585 0.89514,3.82473 1.79029,7.64948 2.68542,11.47423 z m 8.64435,1.8271 c 0.61017,2.60725 1.22034,5.21449 1.83052,7.82173 -0.92009,0.21528 -1.84016,0.43057 -2.76023,0.64586 -1.18864,-5.19463 -2.37727,-10.38928 -3.56582,-15.58396 0.88826,-0.23255 1.7766,-0.46484 2.66502,-0.69685 0.61018,2.6044 1.22033,5.20883 1.83051,7.81322 z M 243.1252,244.534 c 0.45635,2.04574 0.91307,4.09139 1.36821,6.13737 -1.09428,-1.33049 -2.46873,-2.39379 -3.68991,-3.60323 -0.1502,-0.64074 -0.3004,-1.28148 -0.4504,-1.92226 0.91823,-0.18946 1.8789,-0.4861 2.7721,-0.61188 z m 28.91757,11.81756 c 0.29605,0.56926 0.0753,0.86311 -0.51455,0.95852 -7.81054,2.6578 -15.64405,5.25279 -23.46217,7.88806 -0.29015,-1.23776 -0.57968,-2.47565 -0.86853,-3.71369 8.2311,-1.92788 16.46242,-3.85467 24.69399,-5.78046 0.0504,0.21587 0.10088,0.43172 0.15126,0.64757 z m 0.89742,3.83096 c 0.12747,0.54672 0.25494,1.09343 0.38242,1.64014 -8.04905,2.70311 -16.09797,5.40666 -24.14671,8.11065 -0.2352,-1.11053 -0.47093,-2.22094 -0.70704,-3.33127 7.82508,-2.61748 15.63429,-5.28902 23.46856,-7.87484 0.69422,-0.41814 0.74558,0.21788 0.84371,0.7761 0.053,0.2264 0.10599,0.45281 0.15906,0.67922 z m 1.10137,4.70289 c 0.0958,0.55683 0.34144,1.17451 0.34671,1.69454 -7.89487,2.65745 -15.80729,5.26579 -23.69148,7.9531 -0.62835,0.44899 -0.485,-0.55473 -0.66678,-0.94575 -0.17562,-0.75179 -0.35185,-1.50345 -0.52778,-2.25518 2.40871,-0.68567 4.75513,-1.58485 7.13968,-2.35323 5.67163,-1.91299 11.34364,-3.82481 17.01551,-5.73703 0.12806,0.54785 0.2561,1.0957 0.38414,1.64355 z m 1.17104,5.00201 c 0.13767,0.58921 0.27535,1.17843 0.413,1.76763 -8.23117,1.92746 -16.46249,3.85428 -24.69398,5.78047 -0.0128,-0.42709 -0.434,-1.10274 -0.18186,-1.36654 8.00607,-2.6932 16.01148,-5.38845 24.01754,-8.08174 0.14844,0.6334 0.29686,1.26678 0.4453,1.90018 z m -6.66597,5.90794 c 0.12181,0.52466 0.46568,1.18706 -0.36198,1.12283 -2.99726,0.70064 -5.99423,1.40249 -8.99111,2.10477 -0.17574,-0.61424 -0.25328,-1.26971 -0.38921,-1.90018 3.17087,-0.76967 6.34182,-1.53903 9.51285,-2.30811 0.0765,0.32689 0.15297,0.6538 0.22945,0.98069 z" />
    <g
       style="clip-rule:evenodd;fill-rule:evenodd;stroke-width:0.843998;image-rendering:optimizeQuality;shape-rendering:geometricPrecision;text-rendering:geometricPrecision"
       id="g167286"
       transform="matrix(0.00207512,0,0,0.00207512,-14.130256,-6.3910722)">
      <g
         id="g167269"
         style="stroke-width:0.843998">
        <path
           id="path167267"
           d="m 17689.75,14306.76 c 1051.36,-690.74 2198.19,-1256.25 3422.12,-1649.65 1228.66,-394.94 2531.12,-616 3888.13,-616 3578.44,0 6818.17,1450.49 9163.29,3795.6 2345.11,2345.12 3795.6,5584.85 3795.6,9163.29 0,1171.56 -155.99,2307.87 -448.33,3389.19 -273.56,1011.8 -667.7,1976.03 -1166.15,2876.42 19.36,18.28 38.49,36.8 57.31,55.62 501.08,501.08 811.01,1193.3 811.01,1957.85 0,764.56 -309.93,1456.77 -811.01,1957.85 -501.08,501.08 -1193.29,811.01 -1957.85,811.01 -663.06,0 -1271.69,-233.15 -1748.45,-621.89 -1058.84,782.85 -2240.7,1408.23 -3511.05,1841.51 -1314.03,448.16 -2721.59,691.33 -4184.37,691.33 -3578.44,0 -6818.17,-1450.49 -9163.29,-3795.6 -2345.11,-2345.12 -3795.6,-5584.85 -3795.6,-9163.29 0,-1222.58 180.82,-2402.57 505.21,-3526.06 320.69,-1110.66 781.71,-2161.74 1346.81,-3140.54 -495.15,-500.26 -800.96,-1188.27 -800.96,-1947.68 0,-764.56 309.93,-1456.77 811.01,-1957.85 501.08,-501.08 1193.29,-811.01 1957.85,-811.01 700.88,0 1340.94,260.5 1828.72,689.9 z m 3042.92,12808.27 v -645.49 h 607.74 l -0.04,-5.46 c 0,-208.68 23.2,-412.03 67.13,-607.62 v -61.75 h 14.62 c 10.45,-41.95 21.85,-83.52 34.19,-124.69 -296.12,-98.16 -569.98,-244.81 -812.13,-430.57 -161.39,154.87 -295.91,335.86 -396.18,535.66 -132.21,263.43 -206.64,563.23 -206.64,883 0,543.73 220.37,1035.97 576.63,1392.23 356.26,356.26 848.5,576.63 1392.23,576.63 114.84,0 226.98,-9.63 335.66,-28.11 -67.61,-55.9 -132.52,-114.95 -194.5,-176.93 -186.3,-186.3 -346.16,-399.04 -473.5,-632.08 h -270.38 v -674.82 z m 587.48,-3886.63 v -645.49 h 674.83 v -674.83 h 645.49 v 674.83 h 674.82 v 645.49 h -674.82 v 674.82 h -645.49 v -674.82 z m 7339.87,3728.75 h 392.72 v 645.49 h -674.82 v 674.82 h -645.49 v -674.82 h -151.28 c -266.02,85.03 -549.51,130.97 -843.74,130.97 -55.94,0 -111.47,-1.71 -166.59,-4.98 -86.52,168.16 -189.64,326.26 -307.19,472.09 154.57,200.27 346.29,369.7 564.63,497.64 289.99,169.93 629.69,267.35 994.37,267.35 543.73,0 1035.97,-220.37 1392.23,-576.63 356.26,-356.26 576.63,-848.5 576.63,-1392.23 0,-247.53 -45.14,-483.49 -127.56,-700.09 -37.56,-98.71 -82.83,-193.62 -135.08,-284 -98.61,66.09 -201.72,126.03 -308.77,179.23 -134.63,271.81 -312.57,518.36 -524.82,730.61 -11.63,11.63 -23.41,23.12 -35.24,34.55 z M 25739.84,25287.5 v -645.49 h 674.83 v -674.83 h 645.49 v 674.83 h 674.82 v 645.49 h -674.82 v 674.82 h -645.49 v -674.82 z m -5653.05,-620.27 c -332.07,-457.01 -527.93,-1018.6 -527.93,-1625.09 0,-764.56 309.93,-1456.77 811.01,-1957.85 501.08,-501.08 1193.29,-811.01 1957.85,-811.01 239.51,0 471.92,30.41 693.59,87.6 198.97,-398.92 486.62,-738.89 837.27,-995.04 456.26,-333.29 1018.24,-524.67 1629.64,-519.78 694.76,5.56 1332.6,265.38 1819.8,691.91 417.85,365.81 725.32,854.65 863.64,1411.46 692.11,44.89 1314.94,344.08 1775.97,805.11 501.08,501.08 811.01,1193.29 811.01,1957.85 0,553.22 -163.76,1070.03 -445.7,1504.66 -56.28,86.77 -117.33,170.17 -182.74,249.88 112.67,169.61 207.13,352.36 280.61,545.45 116.75,306.8 180.68,638.72 180.68,984.47 0,764.56 -309.93,1456.77 -811.01,1957.85 -501.08,501.08 -1193.29,811.01 -1957.85,811.01 -72.26,0 -143.91,-2.8 -214.85,-8.31 -207,362.28 -493.28,673.19 -835.17,908.95 -447.43,308.55 -988.34,489.23 -1569.77,489.23 -764.56,0 -1456.77,-309.93 -1957.85,-811.01 -276.31,-276.31 -494.44,-610.75 -634.57,-983.37 -193.92,43.06 -394.81,65.77 -600.2,65.77 -764.56,0 -1456.77,-309.93 -1957.85,-811.01 -501.08,-501.08 -811.01,-1193.29 -811.01,-1957.85 0,-443.2 105.94,-864.28 294.14,-1239.26 141.52,-282 328.63,-535.87 551.29,-751.62 z m 3671.96,-3995.89 c 192.1,116.21 368.95,255.08 526.82,412.95 435.5,435.5 726.56,1015.39 795.3,1661.66 134.29,-100.41 277.98,-188.92 429.53,-263.97 224.04,-450.68 566.35,-831.24 985.93,-1100.54 262.12,-168.24 554.02,-293.57 865.75,-366.11 -110.31,-342.89 -313.26,-644.66 -579.06,-877.36 -348.57,-305.16 -804.61,-491.06 -1301.06,-495.03 -432.56,-3.46 -829.64,131.54 -1151.5,366.66 -235.39,171.95 -431.07,397.5 -571.71,661.74 z m 426.67,3028.13 c 22.92,-65.55 42.69,-133.26 59.09,-202.93 34.05,-144.6 52.07,-296.7 52.07,-454.4 0,-543.73 -220.37,-1035.97 -576.63,-1392.23 -356.26,-356.26 -848.51,-576.63 -1392.23,-576.63 -543.73,0 -1035.97,220.37 -1392.23,576.63 -356.26,356.26 -576.63,848.5 -576.63,1392.23 0,484.7 174.09,927.72 462.91,1269.72 251.97,298.36 590.56,520.79 976.58,628.14 90.01,-136.06 191.69,-263.79 303.66,-381.72 473.42,-498.63 1131.07,-820.98 1864.2,-858.38 20.21,-1.02 116.85,-0.88 219.21,-0.43 z m -803.7,5436.88 c 99.81,242.27 246.54,460.25 428.89,642.6 356.26,356.26 848.5,576.63 1392.23,576.63 416.06,0 800.68,-127.6 1116.65,-345.49 178.16,-122.85 335.05,-274.2 464.09,-447.39 -124.06,-50.46 -243.79,-109.66 -358.44,-176.84 -286.59,-167.94 -540.1,-385.47 -748.55,-640.59 -8.91,6.14 -17.86,12.24 -26.85,18.28 -441.59,296.43 -971.65,469.39 -1540.51,469.39 -251.76,0 -495.68,-33.61 -727.51,-96.59 z m 626.28,-4639.63 -1.17,0.06 c -521.34,26.59 -989.4,256.25 -1326.7,611.5 -334.51,352.32 -539.76,829.59 -539.76,1355.8 0,543.73 220.37,1035.97 576.63,1392.23 356.26,356.26 848.5,576.63 1392.23,576.63 407.3,0 784.51,-122.29 1096.75,-331.89 216.32,-145.21 402.15,-331.7 546.04,-547.96 -368.25,-140.27 -698.85,-356.88 -972.46,-630.49 -501.08,-501.08 -811.01,-1193.29 -811.01,-1957.85 0,-159.53 13.54,-315.89 39.45,-468.03 z m 2729.41,-2300.83 c 764.56,0 1456.77,309.93 1957.85,811.01 501.08,501.08 811.01,1193.29 811.01,1957.85 l -0.03,5.43 c 49.52,-59.63 95.6,-122.24 137.94,-187.51 198.92,-306.65 314.46,-674.09 314.46,-1070.28 0,-543.73 -220.37,-1035.97 -576.63,-1392.23 -356.26,-356.26 -848.5,-576.63 -1392.23,-576.63 -392.2,0 -756.71,113.72 -1062.19,309.79 -67.98,43.63 -133.09,91.29 -194.99,142.6 z m 1392.23,1376.63 c -356.26,-356.26 -848.5,-576.63 -1392.23,-576.63 -543.72,0 -1035.97,220.37 -1392.23,576.63 -356.26,356.26 -576.63,848.5 -576.63,1392.23 0,543.73 220.37,1035.97 576.63,1392.23 356.26,356.26 848.51,576.63 1392.23,576.63 543.73,0 1035.97,-220.37 1392.23,-576.63 356.26,-356.26 576.63,-848.5 576.63,-1392.23 0,-543.73 -220.37,-1035.97 -576.63,-1392.23 z m -4127.21,22352.45 v -645.49 h 1995.14 v 645.49 z M 3420.21,24772.74 v -645.49 h 1995.14 v 645.49 z m 11443.25,-8064.28 v -645.49 h 1995.14 v 645.49 z M 33446.3,33601.83 v -645.49 h 1995.14 v 645.49 z m 11149.78,-8879.51 v -645.49 h 1995.14 v 645.49 z M 24002.43,4720.52 v -645.49 h 1995.14 v 645.49 z M 5056.11,21755.15 c 508.24,119.94 962.43,379.91 1319.52,737 501.08,501.08 811.01,1193.29 811.01,1957.85 0,764.56 -309.93,1456.77 -811.01,1957.85 -390.16,390.16 -896.21,664.4 -1462.05,766.71 493,4609.56 2535.69,8755.11 5597.01,11904.93 3077.88,3166.86 7185.09,5327.7 11781.38,5943.11 113.32,-531.97 379.39,-1007.44 750.18,-1378.23 501.08,-501.08 1193.29,-811.01 1957.85,-811.01 764.56,0 1456.77,309.93 1957.85,811.01 370.87,370.87 636.97,846.46 750.26,1378.57 4595.03,-615.27 8701.24,-2775.38 11778.9,-5940.98 3074.15,-3161.97 5121.67,-7327.64 5605.05,-11958.9 -563.5,-103.13 -1067.43,-376.8 -1456.26,-765.63 -501.08,-501.08 -811.01,-1193.29 -811.01,-1957.85 0,-764.56 309.93,-1456.77 811.01,-1957.85 352.53,-352.53 799.68,-610.44 1300.06,-732.38 -714.47,-4362.14 -2825.52,-8254.2 -5859.18,-11201.49 -3027.77,-2941.58 -6974.64,-4942.18 -11368.64,-5530.49 -113.32,531.98 -379.4,1007.47 -750.19,1378.26 -501.08,501.08 -1193.29,811.01 -1957.85,811.01 -764.56,0 -1456.77,-309.93 -1957.85,-811.01 -370.76,-370.76 -636.81,-846.18 -750.15,-1378.09 -4419.4,591.81 -8386.04,2611.66 -11419.93,5580.24 -3017.41,2952.45 -5113.15,6842.14 -5815.96,11197.37 z m -943.83,5446.99 c -642.52,-70.53 -1218.94,-360.88 -1652.35,-794.29 -501.08,-501.08 -811.01,-1193.29 -811.01,-1957.85 0,-764.56 309.93,-1456.77 811.01,-1957.85 466.17,-466.17 1097.8,-766.84 1799.18,-806.48 721.94,-4551.51 2904.98,-8615.84 6053.58,-11696.65 3167.82,-3099.64 7311.81,-5204.82 11927.07,-5810.96 53.16,-676.96 349.78,-1285.52 802.39,-1738.13 501.08,-501.08 1193.29,-811.01 1957.85,-811.01 764.56,0 1456.77,309.93 1957.85,811.01 452.69,452.69 749.34,1061.38 802.42,1738.48 4589.41,602.87 8712.42,2687.28 11872.67,5757.57 3166.55,3076.4 5366.17,7142.27 6100.2,11698.21 709.06,35.19 1347.94,337.12 1818.36,807.54 501.08,501.08 811.01,1193.29 811.01,1957.85 0,764.56 -309.93,1456.77 -811.01,1957.85 -434.86,434.86 -1013.67,725.7 -1658.79,794.99 -492.56,4835.29 -2625.46,9185.79 -5833.82,12485.8 -3211.16,3302.9 -7499.79,5552.8 -12298.61,6183.16 -53.03,677.18 -349.69,1285.95 -802.43,1738.69 -501.08,501.08 -1193.29,811.01 -1957.85,811.01 -764.56,0 -1456.77,-309.93 -1957.85,-811.01 -452.69,-452.69 -749.33,-1061.38 -802.42,-1738.48 C 17439.79,45191.04 13150.21,42940.09 9938.71,39635.75 6742.59,36347.23 4614.22,32016.19 4112.28,27202.14 Z m 1697.73,-4144.37 c -356.26,-356.26 -848.51,-576.63 -1392.23,-576.63 -543.73,0 -1035.97,220.37 -1392.23,576.63 -356.26,356.26 -576.63,848.5 -576.63,1392.23 0,543.73 220.37,1035.97 576.63,1392.23 356.26,356.26 848.5,576.63 1392.23,576.63 543.72,0 1035.97,-220.37 1392.23,-576.63 356.26,-356.26 576.63,-848.5 576.63,-1392.23 0,-543.73 -220.37,-1035.97 -576.63,-1392.23 z m 8725.18,-4240.74 c -512.33,901.66 -930.54,1865.03 -1223.25,2878.79 -302.32,1047.03 -470.83,2152.35 -470.83,3304.18 0,3357.62 1360.93,6397.37 3561.22,8597.67 2200.3,2200.29 5240.05,3561.22 8597.67,3561.22 1375.97,0 2697.22,-227.78 3928.11,-647.59 1164.94,-397.33 2249.99,-966.28 3224.98,-1676.59 -301.7,-443.4 -478.08,-978.92 -478.08,-1555.63 0,-764.55 309.93,-1456.77 811.01,-1957.85 501.08,-501.08 1193.3,-811.01 1957.85,-811.01 447.47,0 870.13,106.19 1244.21,294.71 446.08,-819.85 800.89,-1698.43 1050.6,-2622 274.01,-1013.5 420.21,-2080.58 420.21,-3182.93 0,-3357.62 -1360.93,-6397.37 -3561.22,-8597.67 -2200.3,-2200.29 -5240.05,-3561.22 -8597.67,-3561.22 -1276.22,0 -2496.74,206.49 -3644.37,575.38 -1119.42,359.81 -2173.26,874.65 -3145.04,1503.63 265.72,425.06 419.3,927.4 419.3,1465.6 0,764.55 -309.93,1456.77 -811.01,1957.85 -501.08,501.08 -1193.3,811.01 -1957.85,811.01 -480.32,0 -932.07,-122.35 -1325.84,-337.55 z m 2718.07,-3823.54 c -356.26,-356.26 -848.51,-576.63 -1392.23,-576.63 -543.73,0 -1035.97,220.37 -1392.23,576.63 -356.26,356.26 -576.63,848.5 -576.63,1392.23 0,543.72 220.37,1035.97 576.63,1392.23 356.26,356.26 848.5,576.63 1392.23,576.63 543.72,0 1035.97,-220.37 1392.23,-576.63 356.26,-356.26 576.63,-848.51 576.63,-1392.23 0,-543.73 -220.37,-1035.97 -576.63,-1392.23 z m 9138.97,29216.5 c -356.26,-356.26 -848.5,-576.63 -1392.23,-576.63 -543.73,0 -1035.97,220.37 -1392.23,576.63 -356.26,356.26 -576.63,848.51 -576.63,1392.23 0,543.73 220.37,1035.97 576.63,1392.23 356.26,356.26 848.5,576.63 1392.23,576.63 543.73,0 1035.97,-220.37 1392.23,-576.63 356.26,-356.26 576.63,-848.5 576.63,-1392.23 0,-543.72 -220.37,-1035.97 -576.63,-1392.23 z M 35836.1,31886.85 c -356.26,-356.26 -848.5,-576.63 -1392.23,-576.63 -543.72,0 -1035.97,220.37 -1392.23,576.63 -356.26,356.26 -576.63,848.51 -576.63,1392.23 0,543.73 220.37,1035.97 576.63,1392.23 356.26,356.26 848.51,576.63 1392.23,576.63 543.73,0 1035.97,-220.37 1392.23,-576.63 356.26,-356.26 576.63,-848.5 576.63,-1392.23 0,-543.72 -220.37,-1035.97 -576.63,-1392.23 z m 11149.78,-8879.5 c -356.26,-356.26 -848.5,-576.63 -1392.23,-576.63 -543.72,0 -1035.97,220.37 -1392.23,576.63 -356.26,356.26 -576.63,848.5 -576.63,1392.23 0,543.73 220.37,1035.97 576.63,1392.23 356.26,356.26 848.51,576.63 1392.23,576.63 543.73,0 1035.97,-220.37 1392.23,-576.63 356.26,-356.26 576.63,-848.5 576.63,-1392.23 0,-543.73 -220.37,-1035.97 -576.63,-1392.23 z M 26392.23,3005.55 c -356.26,-356.26 -848.5,-576.63 -1392.23,-576.63 -543.73,0 -1035.97,220.37 -1392.23,576.63 -356.26,356.26 -576.63,848.5 -576.63,1392.23 0,543.72 220.37,1035.97 576.63,1392.23 356.26,356.26 848.5,576.63 1392.23,576.63 543.73,0 1035.97,-220.37 1392.23,-576.63 356.26,-356.26 576.63,-848.51 576.63,-1392.23 0,-543.73 -220.37,-1035.97 -576.63,-1392.23 z"
           class="fil0"
           inkscape:connector-curvature="0"
           style="fill:#000000;fill-rule:nonzero;stroke-width:0.843998" />
      </g>
      <text
         id="text167271"
         font-weight="bold"
         font-size="5px"
         y="50015"
         x="0"
         style="font-weight:bold;font-size:5px;font-family:'Helvetica Neue', Helvetica, Arial-Unicode, Arial, Sans-serif;fill:#000000;stroke-width:0.843998">Created by Alexander Panasovsky</text>
      <text
         id="text167273"
         font-weight="bold"
         font-size="5px"
         y="50020"
         x="0"
         style="font-weight:bold;font-size:5px;font-family:'Helvetica Neue', Helvetica, Arial-Unicode, Arial, Sans-serif;fill:#000000;stroke-width:0.843998">from the Noun Project</text>
    </g>
    <g
       id="g1722"
       transform="matrix(1.0283362,0,0,1.0283362,388.53307,182.04732)"
       style="stroke-width:1.07831">
      <path
         id="path1948"
         style="fill:url(#linearGradient1478);fill-opacity:1;stroke-width:0.759812"
         d="M 66.356059,21.716568 C 63.206601,21.000484 60.140217,20.569109 57.38804,20.42206 49.281015,19.986701 47.197449,22.537389 45.962397,27.847697 l -1.631124,7.013289 18.401844,4.279832 -0.543704,2.337746 -18.401845,-4.279833 -6.906054,-1.606184 c -5.348077,-1.243836 -10.778635,0.881551 -13.665636,6.65596 -3.319771,6.616366 -4.411986,10.972881 -4.349669,18.70212 0.04103,5.752093 2.262073,10.360367 7.610175,11.604209 l 6.326956,1.4715 1.955357,-8.407381 c 1.412625,-6.073812 7.91392,-10.20919 14.154471,-8.757786 l 18.380418,4.27485 c 5.116437,1.189961 10.180703,-2.072815 11.375757,-7.211144 L 82.74466,36.402379 c 1.159864,-4.987024 -2.175959,-9.711705 -6.976201,-11.70547 -3.038786,-1.261421 -6.263158,-2.263324 -9.4124,-2.980341 z m -11.263466,3.326145 c 1.900795,0.44208 3.086131,2.380684 2.634983,4.320466 -0.449574,1.932901 -2.365313,3.134902 -4.266108,2.692823 -1.90759,-0.443661 -3.089495,-2.3661 -2.639946,-4.299008 0.451147,-1.939782 2.36348,-3.157941 4.271071,-2.714281 z" />
      <path
         id="path1950"
         style="fill:url(#linearGradient1475);fill-opacity:1;stroke-width:0.759812"
         d="m 82.864699,46.287145 -1.900488,8.171462 c -1.473419,6.335204 -8.084583,10.418178 -14.20934,8.993705 L 48.374453,59.177463 C 43.339777,58.006516 38.171349,61.34659 36.998695,66.388606 l -4.075323,17.522522 c -1.159857,4.986998 2.494495,8.928871 7.026094,11.49095 5.426647,3.067542 10.94052,4.676222 18.380418,4.27485 4.944705,-0.263866 10.140706,-1.900836 11.375751,-7.211118 l 1.631125,-7.013289 -18.380418,-4.274849 0.54371,-2.337772 18.380418,4.27485 9.200922,2.139916 c 5.348077,1.243836 8.208614,-2.023067 11.370768,-7.189692 3.261849,-5.317473 4.469353,-10.87978 4.34967,-18.70212 C 96.718384,53.731403 95.125652,49.138752 89.770753,47.89333 Z M 62.20657,88.257479 c 1.907591,0.443661 3.089515,2.366132 2.639973,4.299014 -0.451141,1.939756 -2.363507,3.157935 -4.271097,2.714275 -1.900795,-0.44208 -3.086099,-2.380704 -2.634958,-4.320459 0.449543,-1.932882 2.365287,-3.134909 4.266082,-2.69283 z" />
    </g>
    <path
       id="path2090"
       style="fill:#000000;stroke-width:1"
       d="m 439.28226,93.436431 c -2.74649,-2.740859 -8.8096,-6.592132 -5.5065,-10.736329 1.3254,-5.618493 7.04013,-6.988473 11.91309,-5.317258 4.7677,4.214017 6.98652,-3.114739 9.90985,-5.814979 -6.03678,-4.508898 -12.05512,-9.902228 -14.71831,-17.125611 0.20147,-5.561611 4.86484,-0.967296 6.42937,1.070319 4.80184,-2.34312 -1.91274,-6.999572 -1.36241,-10.786337 -1.17401,-3.823182 -1.48733,-7.748498 -0.88273,-11.709944 0.48389,-4.73812 1.93685,-9.413818 4.64145,-13.366572 3.10681,-5.661058 8.49829,-9.8126357 14.24215,-12.5525469 6.06202,-2.0385341 12.63394,-3.118247 18.92538,-1.4133241 5.19891,0.9834405 10.10517,3.5203774 14.11296,6.975796 1.35175,2.189332 5.24086,4.637399 5.57146,0.752216 -2.24528,-2.048396 -1.7528,-7.3450811 1.95449,-4.9575569 7.53776,8.2184279 11.6491,19.4800389 11.01745,30.6336729 -0.17072,6.555582 -2.30109,12.923524 -5.89452,18.386029 -3.64885,6.038349 -9.20999,10.777612 -15.06252,14.620283 -6.0887,3.791421 -13.35671,5.133743 -20.44255,4.995656 -4.51008,-0.115427 -8.96958,-1.160079 -13.15144,-2.755347 -2.12839,1.760058 -4.11933,6.378197 -4.13667,8.913923 2.8724,2.983626 7.40465,6.578673 5.66879,11.258363 -1.23508,4.072415 -4.81987,7.981846 -9.37437,5.859806 -5.17691,-0.963025 -9.76251,-3.709371 -13.85442,-6.930259 z m 13.34194,5.889798 c 2.44937,1.359221 7.38941,0.935371 6.54658,-2.37846 -6.33772,0.629544 -12.0458,-2.86574 -17.09875,-6.240191 -3.20929,-1.738318 -5.3478,-7.076606 -7.28137,-8.349175 -3.55647,3.891107 2.37756,7.358222 4.71403,10.026489 3.77826,3.168762 8.33239,5.730639 13.11951,6.941337 z m 1.25665,-3.56784 c 3.82757,1.826428 10.25891,-0.360491 7.63614,-5.426422 -1.18044,-1.777486 -4.39709,-8.402885 -6.08407,-5.398927 -0.96996,2.154603 -2.27645,4.522445 -4.85155,2.098167 -3.51739,-1.10065 -5.41344,-4.229457 -1.94823,-6.706805 -2.09378,-2.909185 -8.90054,-4.320306 -11.61961,-1.036152 -2.25284,3.092634 1.49698,6.514454 3.42799,8.847309 3.91621,3.340847 8.46116,6.205314 13.4393,7.622852 z m -0.73394,-8.732149 c 2.11901,-3.190601 3.39079,-6.950993 5.19261,-10.360184 3.08297,-3.447583 -2.89025,-6.352811 -4.10079,-1.900495 -1.30186,3.30463 -9.2583,7.429725 -4.97319,10.601424 1.28723,0.542364 2.46761,1.523497 3.88137,1.659255 z M 464.5692,74.462795 c 4.53686,1.482733 9.51189,1.678333 14.22358,1.370712 6.25969,-0.70117 12.69751,-2.134162 17.73581,-6.133931 6.70321,-4.348443 12.10448,-10.743146 15.16721,-18.143183 3.8824,-7.771414 3.66353,-17.014686 1.5451,-25.282103 -1.52376,-5.612008 -4.55805,-10.76034 -7.90542,-15.47432 -0.9678,-3.0837422 -4.86578,-1.8902537 -2.6007,0.990906 4.82294,7.049188 9.09831,14.985682 9.24871,23.727451 -0.0438,6.372711 -1.14133,13.041723 -4.99671,18.287688 -3.15014,6.79334 -8.96123,12.036566 -15.55526,15.408209 -5.12137,2.312157 -10.67369,4.018484 -16.33767,3.909775 -5.36887,-0.05365 -10.62351,-1.667946 -15.37291,-4.106415 -4.91727,-3.005754 -9.65509,-6.496716 -12.85928,-11.392323 -0.84119,-2.613848 -6.22594,-7.813085 -4.50431,-1.909319 3.11413,4.799161 6.35941,9.64762 11.20821,12.879159 3.51473,2.172376 7.00651,4.703987 11.00364,5.867694 z m -0.36892,-4.626796 c 7.29058,3.371377 15.85324,3.087479 23.22446,0.109297 6.26079,-2.254687 11.77908,-6.52984 15.9628,-11.619039 2.88617,-5.146004 6.65294,-10.068528 7.20659,-16.140909 1.30417,-8.014305 -0.50778,-16.321753 -4.55755,-23.29789 -2.71939,-3.615604 -3.70459,2.374825 -1.18483,4.134596 4.1971,8.342746 4.28509,18.529493 0.84131,27.115695 -2.4734,4.416598 -4.807,9.057796 -8.94915,12.178598 -3.35168,2.969316 -7.3754,5.176002 -11.85224,5.80824 -5.01724,1.978982 -10.51059,1.351532 -15.69154,0.456416 -4.70056,-1.379735 -8.7099,-4.546025 -12.94539,-6.962765 -1.92736,-1.912845 -5.69509,-7.218684 -6.9777,-2.398084 4.04446,4.602719 9.02159,8.683547 14.92324,10.615869 z m -14.1934,-12.915854 c 3.65307,-3.350149 -4.9122,-1.878567 -1.49907,0.884431 0.64735,0.06662 1.00116,-0.646208 1.49907,-0.884431 z m 16.65317,9.446211 c 3.07275,1.727964 11.37272,2.727012 5.60384,-1.699142 -5.06737,-3.638935 3.37868,-2.728542 5.64082,-1.593117 3.42242,0.917467 7.40172,-0.223657 9.86059,2.870408 3.727,-0.779726 7.07744,-3.509031 9.9391,-6.031841 3.64488,-3.082481 5.44059,-7.537182 7.48609,-11.71112 1.11058,-2.263267 2.89919,-10.123512 -1.59634,-6.136336 -1.65468,4.576178 -6.92069,5.419135 -9.56466,9.100009 -2.66411,2.522467 -7.91587,4.034722 -4.79862,-1.281737 1.27348,-3.684354 -1.48126,-7.005135 0.5362,-10.768409 -3.41487,-1.032128 -10.51076,-0.382053 -8.34887,-6.029248 4.46026,-5.253647 -0.74896,-10.719844 0.24936,-16.500409 -3.09814,-3.782619 5.26287,-10.786545 -1.88276,-10.5295003 -2.73882,-0.4470237 -10.32952,-1.1759807 -5.82016,3.1144296 5.05636,3.4170717 -1.79131,4.9671457 -2.99721,8.1214227 0.27402,3.29981 -4.13416,4.136604 -1.93402,7.516209 -1.56623,4.575623 -8.1483,-0.124997 -9.2312,5.443159 -1.83656,-0.0429 -5.24414,-1.6343 -6.60863,1.657902 -2.63337,3.766755 -4.75522,-0.327654 -3.11927,-3.160336 2.21654,-4.860122 3.18347,-10.613153 7.18525,-14.400358 2.53311,-4.9456864 -3.98609,1.169581 -5.03824,3.158119 -3.45556,4.961497 -6.09061,10.717101 -6.12802,16.856133 -0.9231,4.646673 0.93905,9.058858 2.04069,13.4948 1.26252,4.290619 4.14778,7.984528 7.13719,11.246644 3.25637,3.139362 6.998,5.959518 11.38887,7.262318 z M 454.69059,36.332174 c 2.33274,-1.539117 5.4454,-5.952578 8.42765,-4.390601 3.86118,3.137909 0.29217,6.980092 -3.86493,5.744552 -1.1969,-0.204768 -4.86237,0.762951 -4.56272,-1.353951 z m 4.72762,0.57242 c 3.79674,1.796165 5.97232,-3.684455 2.33429,-4.651984 -1.75892,1.395366 -5.23049,2.909074 -5.86983,4.483268 1.14833,0.306701 2.36163,0.08913 3.53554,0.168716 z m 11.23535,-13.173556 c 1.64311,-3.102158 1.92897,-9.595936 6.77952,-8.883622 3.81607,2.040137 1.24012,7.249842 2.9179,10.758572 -1.22204,5.301308 -8.51139,-0.07261 -9.69742,-1.87495 z m 4.97413,2.363705 c 5.16126,3.19937 3.21936,-4.073533 2.88583,-6.717148 1.94618,-5.104089 -6.02617,-4.282009 -5.38834,0.380268 -1.29059,2.073079 -2.77074,5.631176 1.10131,5.661185 l 0.702,0.366388 z m 4.11352,41.953382 c 2.17596,0.16406 9.56896,-1.48718 4.65059,-3.362587 -4.51291,-0.05487 -8.89439,-1.196508 -13.24357,-2.2927 3.00774,2.002073 4.30597,7.486826 8.59298,5.655287 z M 453.16412,30.777357 c 1.76654,-4.376676 6.97065,1.150392 7.59332,-3.721512 1.43678,-3.010314 9.48984,1.307278 6.60295,-3.842573 0.41963,-2.809215 3.03202,-4.847661 3.61529,-7.912538 1.99594,-1.841105 6.00239,-3.972354 1.75812,-5.8730573 -0.97392,-5.6156426 -6.62987,-1.8391954 -9.83329,-0.6139117 -4.62305,1.120168 -3.95565,6.435115 -7.44222,9.107689 -2.01638,4.58953 -4.31398,9.184443 -5.26671,14.14285 1.3145,1.09851 2.13622,-0.502277 2.97254,-1.286947 z m 41.17913,18.674184 c 3.76275,-2.81817 7.24457,-5.099542 9.69385,-9.122736 5.24517,0.267437 2.47279,-6.557709 2.28564,-9.793175 -1.62445,-8.486729 -7.42224,-15.684145 -14.57718,-20.284218 -3.17055,-1.6256239 -9.5127,-5.654864 -8.41096,0.892933 -2.44329,3.20585 -0.2337,8.463182 -0.0324,12.157347 4.5845,4.339918 -4.05657,10.240568 0.57462,13.435958 3.86442,0.461982 8.682,1.46778 5.90183,6.345761 2.03491,2.931414 -0.93842,7.646497 0.31013,9.480754 1.68573,-0.606098 2.90992,-1.992662 4.2545,-3.112624 z m 9.8291,-32.802261 c 0.18593,-4.547175 -5.91618,2.031292 -1.17168,0.965891 0.39739,-0.267334 1.01584,-0.433626 1.17168,-0.965891 z"
       sodipodi:nodetypes="cccccccccccccccccccccccccccccccccccccccccccccccccccccccccccccccccccccccccccccccccccccccccccccccccccccccccccccccccccccccccccccccccccccccccccccccccccccccccccccccccccccccccccccccccccccccccccccccccccccccccccccccccccccccccccccccccccccccccccccccccccccccccccccccccccccccccccccccccccccccccccccccccccccccccccccccccccccccccccccccccccccccccccccccccccccccccccccccccccccccccccccccccccccccccccccccccccccccccccccccccccccccccccccccccccccccccccccccccccccccccccccccccccccccccccccccccccccccccccccccccccccccccccccccccccccccccccccccccccccccccccccccccccccccccccccccccccccccccccccccccccccccccccccccccccccccccccccccccccccccccccccccccccccccccccccccccccccccccccccccccccccccccccccccccccccccccccccccccccccccccccccccccccccccccccccccccccccccccccccccccccccccccccccccccccccccccccccccccccccccccccccccccccccc" />
  </g>
  <style
     id="style167059"
     type="text/css">
        .st3 {
            fill: #ffffff;
         }
	.st4 {
            animation-name: diamondFillMode;
            animation-duration: 10s;
            animation-iteration-count: 1000;
            animation-fill-mode: forwards;
        }
        @keyframes diamondFillMode {
            0%   { fill: #E1000F; }
            25%   { fill: #ff9940; }
            50%   { fill: #009d43; }
            75%   { fill: #5770be; }
            100% { fill: #E1000F; }
        }
</style>
</svg>
